<?xml version="1.0" encoding="utf-8"?>
<!-- Generator: Adobe Illustrator 18.0.0, SVG Export Plug-In . SVG Version: 6.00 Build 0)  -->
<!DOCTYPE svg PUBLIC "-//W3C//DTD SVG 1.1//EN" "http://www.w3.org/Graphics/SVG/1.1/DTD/svg11.dtd">
<svg version="1.1"
	 id="svg3111" xmlns:dc="http://purl.org/dc/elements/1.1/" xmlns:cc="http://creativecommons.org/ns#" xmlns:rdf="http://www.w3.org/1999/02/22-rdf-syntax-ns#" xmlns:svg="http://www.w3.org/2000/svg" xmlns:sodipodi="http://sodipodi.sourceforge.net/DTD/sodipodi-0.dtd" xmlns:inkscape="http://www.inkscape.org/namespaces/inkscape" inkscape:version="0.48.3.1 r9886" sodipodi:docname="simplified-GLich.svg"
	 xmlns="http://www.w3.org/2000/svg" xmlns:xlink="http://www.w3.org/1999/xlink" x="0px" y="0px" viewBox="0 0 1920 1080"
	 enable-background="new 0 0 1920 1080" xml:space="preserve">
<sodipodi:namedview  id="base" pagecolor="#ffffff" bordercolor="#666666" borderopacity="1.0" inkscape:zoom="0.25" inkscape:cx="384.341" inkscape:cy="788.94072" showgrid="false" fit-margin-top="100" fit-margin-left="100" inkscape:window-height="761" inkscape:window-y="0" inkscape:window-x="0" inkscape:window-maximized="1" fit-margin-right="100" inkscape:window-width="1280" inkscape:pageshadow="2" fit-margin-bottom="100" inkscape:document-units="px" inkscape:current-layer="layer1" inkscape:pageopacity="0.0">
	</sodipodi:namedview>
<linearGradient id="SVGID_1_" gradientUnits="userSpaceOnUse" x1="453.1" y1="-712.1" x2="453.1" y2="143.9" gradientTransform="matrix(0.5587 0 0 -0.5587 699.6523 603.4456)">
	<stop  offset="0" style="stop-color:#0A3742"/>
	<stop  offset="1" style="stop-color:#005468"/>
</linearGradient>
<rect x="713.7" y="523" fill="url(#SVGID_1_)" width="478.3" height="478.3"/>
<g id="g3907" transform="matrix(0.90757182,0,0,0.80389907,-79.88726,96.720608)">
</g>
<g>
	<path fill="#CCCDCE" d="M791,861.6h0.2c15.6,0,25.1,5.1,28.6,15.2c1.6,3.8,2.4,9.1,2.4,15.9l-17,2.2l-0.2-0.4v-0.4
		c0-8.2-2.8-13.1-8.3-14.7c-1.7-0.4-3.7-0.7-6.2-0.9c-6,0-9.9,3.2-11.7,9.7c-1,4.3-1.5,9.4-1.5,15.3v8.2c0,9.5,0.1,16.7,0.4,21.4
		h4.3v14.6h20.7v-24.9h-13.1v-13.2h39.4v2.9h-5.2V928h-10.6v4.8h5.2v29.7h-56.4v-15.8h-6.4v-1.4h2.8v-1.6h3.6v-5.9h-9.8v-12.6h4.6
		c-0.1-3.7-0.2-5.8-0.2-6.4c0-22.1,1.2-35.4,3.6-40.1c0.7-2.8,2.7-6,6-9.6C771.3,864.2,779.5,861.6,791,861.6z M776.6,964h21.5v2.1
		h-21.5V964z M779.2,927.3h1v4.6h-1V927.3z M785.3,942.2c1.5,0.2,2.2,0.9,2.2,2v0.5c-0.1,1.5-0.8,2.2-2.2,2.2h-0.1
		c-1.4,0-2.1-0.8-2.1-2.6C783.4,942.9,784.1,942.2,785.3,942.2z M784.2,944.4v0.9c0,0.2,0.2,0.4,0.7,0.7h0.8c0.4,0,0.6-0.4,0.7-1.4
		c0-0.6-0.3-1.1-0.9-1.4h-0.2C784.6,943.2,784.2,943.7,784.2,944.4z M789.3,942.4h3.8v1h-1.2v3.4c0,0.2-0.1,0.3-0.4,0.3H791
		c-0.2,0-0.4-0.1-0.4-0.3v-3.4h-1c-0.2,0-0.4-0.1-0.4-0.3L789.3,942.4L789.3,942.4z M821.7,933.6c0.7,0.2,1.1,0.6,1.2,0.9v0.7
		c0,0.2-0.2,0.4-0.7,0.7c0.1,0.2,0.2,0.4,0.2,0.5h0.4V936h0.9v0.2c0,0.6-0.1,0.8-0.4,0.8c0,0.2,0.3,0.6,0.9,1.2h-1l-0.5-0.4
		c-0.5,0.3-0.9,0.5-1.4,0.5c-0.8,0-1.2-0.5-1.4-1.5c0.2-0.5,0.4-0.8,0.8-1c-0.1-0.6-0.2-1.1-0.2-1.4
		C820.5,934.1,820.8,933.8,821.7,933.6z M821.7,941c0.7,0.2,1.1,0.6,1.2,0.9v0.7c0,0.2-0.2,0.4-0.7,0.7c0.1,0.2,0.2,0.4,0.2,0.5h0.4
		v-0.4h0.9v0.2c0,0.6-0.1,0.9-0.4,0.9c0,0.1,0.3,0.5,0.9,1.2h-1l-0.5-0.3c-0.5,0.3-0.9,0.5-1.4,0.5c-0.8,0-1.2-0.6-1.4-1.6
		c0.2-0.4,0.4-0.8,0.8-1c-0.1-0.6-0.2-1.1-0.2-1.4C820.5,941.5,820.8,941.2,821.7,941z M821.5,948.4c0.6,0,1.1,0.3,1.4,0.9v0.7
		c0,0.2-0.2,0.4-0.7,0.7c0.1,0.2,0.2,0.4,0.2,0.5h0.4v-0.3h0.9v0.2c0,0.6-0.1,0.9-0.4,0.9c0,0.1,0.3,0.5,0.9,1.2h-1l-0.5-0.4
		c-0.5,0.3-0.9,0.5-1.4,0.5c-0.8,0-1.2-0.5-1.4-1.5c0.2-0.5,0.4-0.8,0.8-1.1l-0.2-1.2v-0.2C820.5,949.1,820.8,948.8,821.5,948.4z
		 M821.5,955.9c0.6,0,1.1,0.3,1.4,0.9v0.7c0,0.2-0.2,0.4-0.7,0.7c0.1,0.2,0.2,0.4,0.2,0.5h0.4v-0.4h0.9v0.2l-0.4,1.2
		c0.2,0,0.4,0.3,0.9,0.9h-1l-0.5-0.4c-0.5,0.3-0.9,0.5-1.4,0.5c-0.8,0-1.2-0.5-1.4-1.5c0.2-0.5,0.4-0.8,0.8-1l-0.2-1.2v-0.2
		C820.5,956.5,820.8,956.2,821.5,955.9z M821.2,936.3l-0.4,0.5v0.2c0,0.2,0.2,0.4,0.5,0.6c0.4-0.2,0.7-0.4,0.7-0.6L821.2,936.3z
		 M821.2,943.7l-0.4,0.5v0.2c0,0.2,0.2,0.3,0.5,0.5c0.4-0.2,0.7-0.4,0.7-0.5C821.5,944,821.2,943.7,821.2,943.7z M821.2,951.2
		l-0.4,0.6v0.2c0,0.2,0.2,0.3,0.5,0.5c0.4-0.2,0.7-0.3,0.7-0.5L821.2,951.2z M821.2,958.7l-0.4,0.5v0.2c0,0.2,0.2,0.4,0.5,0.5
		c0.4-0.2,0.7-0.3,0.7-0.5L821.2,958.7z M821.3,934.8c0.1,0.2,0.2,0.4,0.2,0.5c0.2,0,0.4-0.2,0.5-0.5c0-0.2-0.1-0.4-0.3-0.4
		C821.5,934.4,821.3,934.6,821.3,934.8z M821.3,942.2c0.1,0.2,0.2,0.4,0.2,0.5c0.2,0,0.4-0.2,0.5-0.5c0-0.2-0.1-0.4-0.3-0.4
		C821.5,941.9,821.3,942,821.3,942.2z M821.3,949.6c0.1,0.2,0.2,0.4,0.2,0.5c0.2,0,0.4-0.2,0.5-0.5c0-0.2-0.1-0.4-0.3-0.4
		C821.5,949.3,821.3,949.4,821.3,949.6z M821.3,957.1c0.1,0.2,0.2,0.4,0.2,0.5c0.2,0,0.4-0.2,0.5-0.5c0-0.2-0.1-0.3-0.3-0.3
		C821.5,956.8,821.3,956.9,821.3,957.1z"/>
	<path fill="#CCCDCE" d="M829.3,827.8h27.4v56.7h-5.4v58.6h41v12.3h-8.1v2.8h8.1v7.9h-26.5v-2.1h-36.3c-0.1-1.6-0.2-2.7-0.2-3.5
		v-30.9h6.9v-4.1h-6.9C829.3,925.5,829.3,827.8,829.3,827.8z M892.3,955.4h10v2.8h-10V955.4z"/>
	<path fill="#CCCDCE" d="M910.6,828.1h26c0.3,0.1,0.4,0.2,0.4,0.5v67c0,0.3-0.1,0.5-0.4,0.5h-3.1v69.6c0,0.3-0.2,0.5-0.5,0.5h-22.5
		c-0.3,0-0.5-0.2-0.5-0.5v-71.2h-6.9c-0.3,0-0.5-0.2-0.5-0.5v-3c0.1-0.3,0.2-0.5,0.5-0.5h6.9v-62
		C910.2,828.2,910.4,828.1,910.6,828.1z M910.4,890.5v4h13.3v-4H910.4z"/>
</g>
<g>
	<path fill="#022633" d="M1122.7,701.1c1.3-10.1,1.4-21.1,0.4-32c-0.9-10.8-3-21.6-5.6-31c-5.6-29.3-33.6-45.4-55.3-64.4
		c-6.9-6-14.5-10.4-22.5-13.5c-31.8-10.6-67.6-3.9-93.1,18.7c-23.8,21.5-52.2,42.9-59.7,75.3c-1.8,10.8-0.4,21.7,5.1,31
		c4.2,7,3.6,15.9,4.1,24.2c0.9,5.8,0.8,11.9,5.3,15.9c11.2,9.3,25.3,20.3,28.8,34.6c1.2,4.7,1.2,9.9-0.3,15.5
		c-1.1,2.2-0.6,5,0.5,7.3c4.4,7.9,16.1,9.7,17.1,18.6c0.5,5.6-5.7,8.3-10.2,10.5c7.3,0.1,14.5-1.5,19.1-7.6
		c10.4,20.8-11.6,41.8-32.3,41c16.1,4.6,34,6,49.2-1.7c-0.9,30.7-38.9,35.4-63,35.1c23.5,2.5,48.6,3.3,69.7-8.8
		c4.4-2.7,8.3-6.1,11.5-10.2c3.2-4.1,5.8-8.9,7.4-14.6c1.1,6.4,0.1,13.6-2.6,19.7c-2.7,6.1-7.3,11.2-13.4,13.7
		c-8.4,3.8-17.9,6-26.9,8.7c-33.1,8.6-75,12.6-89.9,47.7c27.2-31,71.9-29.4,109.3-34.3c6.2-0.9,12.2-2.3,17.8-4.3
		c11.2-4,20.8-10.8,27.3-22.9c4.7-8.8,8.2-18.6,13.6-27.2c2.3-2.8,5.1-5,7.9-6.6c-5.1,7.2-9.1,16.1-9.2,25
		c13.7-25.5,34-44.9,54-65.5c8-9.5,13.4-18.9,8.8-24.9c-12.3-15,2.1-33.2,15.5-44.1C1128.5,714.9,1124.9,717.5,1122.7,701.1z
		 M972.9,788.2c-5.8,5.5-1.4,13.4-1.5,20.1c-8.4-1.8-13.3-10.2-13.2-18c0.6-6.7,5.1-12.8,11.8-13
		C976.4,777.3,973.9,784.4,972.9,788.2z M989.6,797.2c-4.1-0.6-4,4.7-8.6,4.5c-0.1-1.8-0.9-5.5-1-9.2c-0.2-3.7,0.3-7.6,2.8-9.6
		c4.4,0.1,6.4,2,7.2,4.6C990.8,790.5,990.2,794.2,989.6,797.2z M1010.2,805.7c-3.2-7.2-14,8.3-12.6-4.5c0.3-5.9-3.1-15.4,6.5-17.7
		C1016.7,783.9,1008.6,800.9,1010.2,805.7z M1027,806.4c-9.4,3.8-0.8-13.9-11.1-5.4c0.5-3.2-0.4-15.3,7.5-17.3
		c0.4-0.1,0.9-0.1,1.3-0.1C1037.7,784,1031.3,806.3,1027,806.4z M1051.3,795.2c-1,3.7-2.6,7.4-3.1,9.2c-4.6-0.1-3.4-5.4-7.7-5
		c0.1-3,0.3-6.8,1.8-9.7c1.4-2.6,3.8-4.4,8.2-4.2C1052.7,787.6,1052.3,791.5,1051.3,795.2z M1072.7,803.2c-3.4,3.9-7.9,6.1-12.3,7.7
		c1.2-5.6,5.7-11.1,4.1-17.3c-1.1-4.5-2.1-8.9,0.7-12.9c1.1-1.7,3.4-1.1,4.9-1C1080,782.1,1079.2,795.3,1072.7,803.2z M1118.6,710.1
		c0.7,3.1-0.2,6.3-2.2,8.5c-21.2,23.2-24,25-33.3,45.9c0,0,3.1-12.3,3.8-13.8c5.2-12,9.6-19.2,21-29.3c10.4-15-3.3-24-0.8-48.4
		c0.2-8,3-16.3,3-16.3c-8.9,13.4-5.8,36.1-1.6,51.1c0.8,2.8,0.4,5.9-0.9,8.4c-7.2,13.6-19.7,19.3-35.5,22.5l-0.9,12.2
		c0,9.1,7.8,15.9,9.9,24.3c1.1,3.9,1,8.4-1.2,12.3c-0.5-5,0.1-12.3-3.2-12.9c-8.4-0.1-17.4,3.2-20.8,13.2c-0.5-3.4-4.4-5.1-4.4-8.4
		c-1.1,1.1-1.7,2.2-1.7,3.9c-7.3-1.2-8.4,6.6-11.8,11.1c0.6-5-1-10.1-5.5-12.3c-6.6-2.8-14.5-0.7-17.9,6c-1.6-5.6-5.5-9.6-11.6-7.9
		c-7.3,2.7-7.9,10.5-10.8,16.7c0.1-4.5,2.3-10.1-2.1-14c-2.8-2.3-7.2-3.4-10.1-0.7c-1-8.4-11.1-10.2-16.1-9.7
		c-4.5,0.5-5.1,10-7.4,16.1c-6-12.9,0.3-25.1,6.5-36.3c1.7-3.4,0.7-9.5-2.1-10.1c-15.6-2.4-30.7-5.9-41.2-18.3
		c-2.7-4-4.4-7.9-3.7-12.7c1-6.9,2.5-13.8,3.1-20.8s0.3-14.2-2.3-21.5c-3.2-8.9-9.4-14.1-9.4-14.1c4.6,7,8,15.8,9.2,24.9
		c1.2,9.2,0.1,18.8-4.3,27.3c-1.4,5.8-2,11.9,2.4,15.3c12.7,12.4,27,29.9,21.3,48.3c2.4-16.8-9.2-30.3-21.3-39.9
		c-6.6-5.1-11.6-11.3-13-19.1c-1.4-7.7-1.2-16.3-3.4-23.7c-4.2-10.7-10.2-21.5-6.6-33.9c19.5-49.4,69.5-94.6,124.5-94.6
		c14.7,0.2,27.4,5.5,39,13.5c11.6,8,21.9,18.5,31.8,28.9c9.1,9.5,21.6,17.8,25.3,31.6c3.5,11,5,23,7.3,33.4
		C1121.3,680,1115.6,696.4,1118.6,710.1z"/>
	<path fill="#022633" d="M923.4,949.4L923.4,949.4z"/>
	<path fill="#022633" d="M1022.6,719.7c-1.3-2.5-4-4.1-6.9-4.3c-11.9,4.2-12.8,21.5-19.9,30.6c4.9,13.4,23-4.6,32.1,4.6
		C1043.7,744.4,1021.1,730.3,1022.6,719.7z"/>
	<path fill="#022633" d="M1002.2,697.3c3.5-17.6-1.3-40.8-21.3-43.3c-0.7-0.1-1.5-0.2-2.2-0.2c-14.7-0.5-27.2,12.2-40.1,19.1
		c-7.4,4-10.4,10.7-10.9,17.9s1.5,14.9,4,20.8c6,16.5,26.7,14.5,40.8,8.5c5.6-2.7,14-2.1,20.3-5.2
		C998.9,711.7,1003,706.4,1002.2,697.3z"/>
	<path fill="#022633" d="M1088.8,672.8c-13.6-5.6-22.2-19.2-36.1-19.3c-0.2,0-0.4,0-0.7,0c-8.2,0.2-15.1,5.6-19.9,12.8
		s-7.4,16.1-6.9,23.5c-2.3,16.6,11.5,30.4,29.1,24.6c12.2,1.8,28.4,15.1,38.8-0.1C1099,701.4,1102.2,678.4,1088.8,672.8z"/>
</g>
<path fill="#CCCDCE" d="M995,828.1c19.3,0,31.3,6,36.3,18.1c1.5,2.9,2.2,4.8,2.2,5.8h-12.1v3.7h13.1v-0.2c0-0.6-0.3-1.8-0.9-3.5
	h22.2v3.7h-21.1v0.3c1.1,5.2,1.8,10.8,2.3,16.7c0,0.3-8.4,0.9-25.3,1.8v-0.2c0-15.3-5.3-22.9-15.7-22.9H993c-7.8,0-12.6,3.4-14.4,10
	c-1.3,5.6-2,13-2,22.2v18.8l-0.3,2.8h-8.9v4.4h8.9v33.4h37.1v-34.8h21.4v34.8h-11.8v21.4h-24.8v1.8H979v-1.8h-19.6v-10.7h13V949
	h-19.6v-15.8h-8.3v-19.6h4.4c-0.2-7.9-0.3-14.3-0.3-19c0-21,1-34.3,3-39.7c2-6.3,5.1-11.7,9.3-16.2C968.7,831.6,980,828.1,995,828.1
	z"/>
<text transform="matrix(1 0 0 1 1027.4102 968.1971)" fill="#022633" font-family="'HACKED'" font-size="124.7394">T</text>
<path fill="#CCCDCE" d="M1069.5,828.3h27.4v54.9h27.5v-54.9h23.1v78.2h-9.6v3.5h9.6v56h-22.7c-0.3,0-0.4-0.2-0.4-0.5v-59.5h-27.5
	v59.5c0,0.3-0.2,0.5-0.5,0.5h-22.9v-71.7h-4V828.3z M1147.5,906.6h12.2v3.5h-12.2V906.6z"/>
<linearGradient id="SVGID_2_" gradientUnits="userSpaceOnUse" x1="453.1" y1="167" x2="453.1" y2="1023" gradientTransform="matrix(0.5587 0 0 -0.5587 699.6523 603.4456)">
	<stop  offset="0" style="stop-color:#EA5F00"/>
	<stop  offset="1" style="stop-color:#E80500"/>
</linearGradient>
<rect x="713.7" y="31.8" fill="url(#SVGID_2_)" width="478.3" height="478.3"/>
<g>
	<path fill="#CCCDCE" d="M791,370.4h0.2c15.6,0,25.1,5.1,28.6,15.2c1.6,3.8,2.4,9.1,2.4,15.9l-17,2.2l-0.2-0.4V403
		c0-8.2-2.8-13.1-8.3-14.7c-1.7-0.4-3.7-0.7-6.2-0.9c-6,0-9.9,3.2-11.7,9.7c-1,4.3-1.5,9.4-1.5,15.3v8.3c0,9.5,0.1,16.7,0.4,21.4
		h4.3v14.6h20.7v-24.9h-13.1v-13.4h39.4v2.9h-5.2v15.4h-10.6v4.8h5.2v29.7h-56.4v-15.8h-6.4v-1.4h2.8v-1.6h3.6v-5.9h-9.8v-12.6h4.6
		c-0.1-3.7-0.2-5.8-0.2-6.4c0-22.1,1.2-35.4,3.6-40.1c0.7-2.8,2.7-6,6-9.6C771.3,373,779.5,370.4,791,370.4z M776.6,472.8h21.5v2.1
		h-21.5V472.8z M779.2,436.1h1v4.6h-1V436.1z M785.3,451c1.5,0.2,2.2,0.9,2.2,2v0.5c-0.1,1.5-0.8,2.2-2.2,2.2h-0.1
		c-1.4,0-2.1-0.8-2.1-2.6C783.4,451.8,784.1,451,785.3,451z M784.2,453.3v0.9c0,0.2,0.2,0.4,0.7,0.7h0.8c0.4,0,0.6-0.4,0.7-1.4
		c0-0.6-0.3-1.1-0.9-1.4h-0.2C784.6,452,784.2,452.5,784.2,453.3z M789.3,451.2h3.8v1h-1.2v3.4c0,0.2-0.1,0.3-0.4,0.3H791
		c-0.2,0-0.4-0.1-0.4-0.3v-3.4h-1c-0.2,0-0.4-0.1-0.4-0.3L789.3,451.2L789.3,451.2z M821.7,442.4c0.7,0.2,1.1,0.6,1.2,0.9v0.7
		c0,0.2-0.2,0.4-0.7,0.7c0.1,0.2,0.2,0.4,0.2,0.5h0.4v-0.4h0.9v0.2c0,0.6-0.1,0.8-0.4,0.8c0,0.2,0.3,0.6,0.9,1.2h-1l-0.5-0.4
		c-0.5,0.3-0.9,0.5-1.4,0.5c-0.8,0-1.2-0.5-1.4-1.5c0.2-0.5,0.4-0.8,0.8-1c-0.1-0.6-0.2-1.1-0.2-1.4
		C820.5,442.9,820.8,442.6,821.7,442.4z M821.7,449.8c0.7,0.2,1.1,0.6,1.2,0.9v0.7c0,0.2-0.2,0.4-0.7,0.7c0.1,0.2,0.2,0.4,0.2,0.5
		h0.4v-0.4h0.9v0.2c0,0.6-0.1,0.9-0.4,0.9c0,0.1,0.3,0.5,0.9,1.2h-1l-0.5-0.3c-0.5,0.3-0.9,0.5-1.4,0.5c-0.8,0-1.2-0.6-1.4-1.6
		c0.2-0.4,0.4-0.8,0.8-1c-0.1-0.6-0.2-1.1-0.2-1.4C820.5,450.3,820.8,450,821.7,449.8z M821.5,457.2c0.6,0,1.1,0.3,1.4,0.9v0.7
		c0,0.2-0.2,0.4-0.7,0.7c0.1,0.2,0.2,0.4,0.2,0.5h0.4v-0.3h0.9v0.2c0,0.6-0.1,0.9-0.4,0.9c0,0.1,0.3,0.5,0.9,1.2h-1l-0.5-0.4
		c-0.5,0.3-0.9,0.5-1.4,0.5c-0.8,0-1.2-0.5-1.4-1.5c0.2-0.5,0.4-0.8,0.8-1.1l-0.2-1.2v-0.2C820.5,457.9,820.8,457.6,821.5,457.2z
		 M821.5,464.7c0.6,0,1.1,0.3,1.4,0.9v0.7c0,0.2-0.2,0.4-0.7,0.7c0.1,0.2,0.2,0.4,0.2,0.5h0.4v-0.4h0.9v0.2l-0.4,1.2
		c0.2,0,0.4,0.3,0.9,0.9h-1l-0.5-0.4c-0.5,0.3-0.9,0.5-1.4,0.5c-0.8,0-1.2-0.5-1.4-1.5c0.2-0.5,0.4-0.8,0.8-1l-0.2-1.2v-0.2
		C820.5,465.3,820.8,465,821.5,464.7z M821.2,445.2l-0.4,0.5v0.2c0,0.2,0.2,0.4,0.5,0.6c0.4-0.2,0.7-0.4,0.7-0.6L821.2,445.2z
		 M821.2,452.5l-0.4,0.5v0.2c0,0.2,0.2,0.3,0.5,0.5c0.4-0.2,0.7-0.4,0.7-0.5C821.5,452.8,821.2,452.5,821.2,452.5z M821.2,460
		l-0.4,0.6v0.2c0,0.2,0.2,0.3,0.5,0.5c0.4-0.2,0.7-0.3,0.7-0.5L821.2,460z M821.2,467.5l-0.4,0.5v0.2c0,0.2,0.2,0.4,0.5,0.5
		c0.4-0.2,0.7-0.3,0.7-0.5L821.2,467.5z M821.3,443.6c0.1,0.2,0.2,0.4,0.2,0.5c0.2,0,0.4-0.2,0.5-0.5c0-0.2-0.1-0.4-0.3-0.4
		C821.5,443.3,821.3,443.4,821.3,443.6z M821.3,451c0.1,0.2,0.2,0.4,0.2,0.5c0.2,0,0.4-0.2,0.5-0.5c0-0.2-0.1-0.4-0.3-0.4
		C821.5,450.7,821.3,450.9,821.3,451z M821.3,458.5c0.1,0.2,0.2,0.4,0.2,0.5c0.2,0,0.4-0.2,0.5-0.5c0-0.2-0.1-0.4-0.3-0.4
		C821.5,458.1,821.3,458.3,821.3,458.5z M821.3,465.9c0.1,0.2,0.2,0.4,0.2,0.5c0.2,0,0.4-0.2,0.5-0.5c0-0.2-0.1-0.3-0.3-0.3
		C821.5,465.6,821.3,465.7,821.3,465.9z"/>
	<path fill="#CCCDCE" d="M829.3,336.6h27.4v56.7h-5.4v58.6h41v12.3h-8.1v2.8h8.1v7.9h-26.5v-2.1h-36.3c-0.1-1.6-0.2-2.7-0.2-3.5
		v-30.9h6.9v-4.1h-6.9C829.3,434.3,829.3,336.6,829.3,336.6z M892.3,464.2h10v2.8h-10V464.2z"/>
	<path fill="#CCCDCE" d="M910.6,336.9h26c0.3,0.1,0.4,0.2,0.4,0.5v67c0,0.3-0.1,0.5-0.4,0.5h-3.1v69.6c0,0.3-0.2,0.5-0.5,0.5h-22.5
		c-0.3,0-0.5-0.2-0.5-0.5v-71.2h-6.9c-0.3,0-0.5-0.2-0.5-0.5v-3c0.1-0.3,0.2-0.5,0.5-0.5h6.9v-61.9
		C910.2,337,910.4,336.9,910.6,336.9z M910.4,399.3v4h13.3v-4H910.4z"/>
</g>
<g>
	<path fill="#421C00" d="M1122.7,209.9c1.3-10.1,1.4-21.1,0.4-32c-0.9-10.8-3-21.6-5.6-31c-5.6-29.3-33.6-45.4-55.3-64.4
		c-6.9-6-14.5-10.4-22.5-13.5c-31.8-10.6-67.6-3.9-93.1,18.7c-23.8,21.5-52.2,42.9-59.7,75.3c-1.8,10.8-0.4,21.7,5.1,31
		c4.2,7,3.6,15.9,4.1,24.2c0.9,5.8,0.8,11.9,5.3,15.9c11.2,9.3,25.3,20.3,28.8,34.6c1.2,4.7,1.2,9.9-0.3,15.5
		c-1.1,2.2-0.6,5,0.5,7.3c4.4,7.9,16.1,9.7,17.1,18.6c0.5,5.6-5.7,8.3-10.2,10.5c7.3,0.1,14.5-1.5,19.1-7.6
		c10.4,20.8-11.6,41.8-32.3,41c16.1,4.6,34,6,49.2-1.7c-0.9,30.7-38.9,35.4-63,35.1c23.5,2.5,48.6,3.3,69.7-8.8
		c4.4-2.7,8.3-6.1,11.5-10.2c3.2-4.1,5.8-8.9,7.4-14.6c1.1,6.4,0.1,13.6-2.6,19.7c-2.7,6.1-7.3,11.2-13.4,13.7
		c-8.4,3.8-17.9,6-26.9,8.7c-33.1,8.6-75,12.6-89.9,47.7c27.2-31,71.9-29.4,109.3-34.3c6.2-0.9,12.2-2.3,17.8-4.3
		c11.2-4,20.8-10.8,27.3-22.9c4.7-8.8,8.2-18.6,13.6-27.2c2.3-2.8,5.1-5,7.9-6.6c-5.1,7.2-9.1,16.1-9.2,25
		c13.7-25.5,34-44.9,54-65.5c8-9.5,13.4-18.9,8.8-24.9c-12.3-15,2.1-33.2,15.5-44.1C1128.5,223.7,1124.9,226.3,1122.7,209.9z
		 M972.9,297c-5.8,5.5-1.4,13.4-1.5,20.1c-8.4-1.8-13.3-10.2-13.2-18c0.6-6.7,5.1-12.8,11.8-13C976.4,286.1,973.9,293.2,972.9,297z
		 M989.6,306c-4.1-0.6-4,4.7-8.6,4.5c-0.1-1.8-0.9-5.5-1-9.2c-0.2-3.7,0.3-7.6,2.8-9.6c4.4,0.1,6.4,2,7.2,4.6
		C990.8,299.3,990.2,303.1,989.6,306z M1010.2,314.5c-3.2-7.2-14,8.3-12.6-4.5c0.3-5.9-3.1-15.4,6.5-17.7
		C1016.7,292.7,1008.6,309.7,1010.2,314.5z M1027,315.2c-9.4,3.8-0.8-13.9-11.1-5.4c0.5-3.2-0.4-15.3,7.5-17.3
		c0.4-0.1,0.9-0.1,1.3-0.1C1037.7,292.8,1031.3,315.1,1027,315.2z M1051.3,304c-1,3.7-2.6,7.4-3.1,9.2c-4.6-0.1-3.4-5.4-7.7-5
		c0.1-3,0.3-6.8,1.8-9.7c1.4-2.6,3.8-4.4,8.2-4.2C1052.7,296.4,1052.3,300.3,1051.3,304z M1072.7,312c-3.4,3.9-7.9,6.1-12.3,7.7
		c1.2-5.6,5.7-11.1,4.1-17.3c-1.1-4.5-2.1-8.9,0.7-12.9c1.1-1.7,3.4-1.1,4.9-1C1080,290.9,1079.2,304.2,1072.7,312z M1118.6,218.9
		c0.7,3.1-0.2,6.3-2.2,8.5c-21.2,23.2-24,25-33.3,45.9c0,0,3.1-12.3,3.8-13.8c5.2-12,9.6-19.2,21-29.3c10.4-15-3.3-24-0.8-48.4
		c0.2-8,3-16.3,3-16.3c-8.9,13.4-5.8,36.1-1.6,51.1c0.8,2.8,0.4,5.9-0.9,8.4c-7.2,13.6-19.7,19.3-35.5,22.5l-0.9,12.2
		c0,9.1,7.8,15.9,9.9,24.3c1.1,3.9,1,8.4-1.2,12.3c-0.5-5,0.1-12.3-3.2-12.9c-8.4-0.1-17.4,3.2-20.8,13.2c-0.5-3.4-4.4-5.1-4.4-8.4
		c-1.1,1.1-1.7,2.2-1.7,3.9c-7.3-1.2-8.4,6.6-11.8,11.1c0.6-5-1-10.1-5.5-12.3c-6.6-2.8-14.5-0.7-17.9,6c-1.6-5.6-5.5-9.6-11.6-7.9
		c-7.3,2.7-7.9,10.5-10.8,16.7c0.1-4.5,2.3-10.1-2.1-14c-2.8-2.3-7.2-3.4-10.1-0.7c-1-8.4-11.1-10.2-16.1-9.7
		c-4.5,0.5-5.1,10-7.4,16.1c-6-12.9,0.3-25.1,6.5-36.3c1.7-3.4,0.7-9.5-2.1-10.1c-15.6-2.4-30.7-5.9-41.2-18.3
		c-2.7-4-4.4-7.9-3.7-12.7c1-6.9,2.5-13.8,3.1-20.8s0.3-14.2-2.3-21.5c-3.2-8.9-9.4-14.1-9.4-14.1c4.6,7,8,15.8,9.2,24.9
		c1.2,9.2,0.1,18.8-4.3,27.3c-1.4,5.8-2,11.9,2.4,15.3c12.7,12.4,27,29.9,21.3,48.3c2.4-16.8-9.2-30.3-21.3-39.9
		c-6.6-5.1-11.6-11.3-13-19.1c-1.4-7.7-1.2-16.3-3.4-23.7c-4.2-10.7-10.2-21.5-6.6-33.9c19.5-49.4,69.5-94.6,124.5-94.6
		c14.7,0.2,27.4,5.5,39,13.5s21.9,18.5,31.8,28.9c9.1,9.5,21.6,17.8,25.3,31.6c3.5,11,5,23,7.3,33.4
		C1121.3,188.9,1115.6,205.2,1118.6,218.9z"/>
	<path fill="#421C00" d="M923.4,458.2L923.4,458.2z"/>
	<path fill="#421C00" d="M1022.6,228.5c-1.3-2.5-4-4.1-6.9-4.3c-11.9,4.2-12.8,21.5-19.9,30.6c4.9,13.4,23-4.6,32.1,4.6
		C1043.7,253.2,1021.1,239.1,1022.6,228.5z"/>
	<path fill="#421C00" d="M1002.2,206.1c3.5-17.6-1.3-40.8-21.3-43.3c-0.7-0.1-1.5-0.2-2.2-0.2c-14.7-0.5-27.2,12.2-40.1,19.1
		c-7.4,4-10.4,10.7-10.9,17.9c-0.5,7.2,1.5,14.9,4,20.8c6,16.5,26.7,14.5,40.8,8.5c5.6-2.7,14-2.1,20.3-5.2
		C998.9,220.5,1003,215.2,1002.2,206.1z"/>
	<path fill="#421C00" d="M1088.8,181.6c-13.6-5.6-22.2-19.2-36.1-19.3c-0.2,0-0.4,0-0.7,0c-8.2,0.2-15.1,5.6-19.9,12.8
		c-4.7,7.2-7.4,16.1-6.9,23.5c-2.3,16.6,11.5,30.4,29.1,24.6c12.2,1.8,28.4,15.1,38.8-0.1C1099,210.2,1102.2,187.2,1088.8,181.6z"/>
</g>
<path fill="#CCCDCE" d="M995,336.9c19.3,0,31.3,6,36.3,18.1c1.5,2.9,2.2,4.8,2.2,5.8h-12.1v3.7h13.1v-0.2c0-0.6-0.3-1.8-0.9-3.5
	h22.2v3.7h-21.1v0.3c1.1,5.2,1.8,10.8,2.3,16.7c0,0.3-8.4,0.9-25.3,1.8v-0.2c0-15.3-5.3-22.9-15.7-22.9H993c-7.8,0-12.6,3.4-14.4,10
	c-1.3,5.6-2,13-2,22.2v18.8l-0.3,2.8h-8.9v4.4h8.9v33.4h37.1V417h21.4v34.8h-11.8v21.4h-24.8v1.8H979v-1.8h-19.6v-10.7h13v-4.6
	h-19.6V442h-8.3v-19.6h4.4c-0.2-7.9-0.3-14.3-0.3-19c0-21,1-34.3,3-39.7c2-6.3,5.1-11.7,9.3-16.2C968.7,340.4,980,336.9,995,336.9z"
	/>
<g enable-background="new    ">
	<path fill="#FC5C30" d="M1026.2,387.7h51.2v14.6h-16.9v60.4h7.7v1.8h-7.7v6.6h-4.6v2.3h3.2v1.6h-15.5c-0.2,0-0.3-0.1-0.3-0.3v-72.4
		h-17.1V387.7z M1054.4,462.6v1.8h5.9v-1.8H1054.4z"/>
</g>
<path fill="#CCCDCE" d="M1069.5,337.1h27.4v54.9h27.5v-54.9h23.1v78.2h-9.6v3.5h9.6v56.1h-22.7c-0.3,0-0.4-0.2-0.4-0.5V415h-27.5
	v59.5c0,0.3-0.2,0.5-0.5,0.5h-22.9v-71.8h-4V337.1z M1147.5,415.4h12.2v3.5h-12.2V415.4z"/>
</svg>
