<?xml version="1.0" encoding="UTF-8" standalone="no"?>
<!-- Created with Inkscape (http://www.inkscape.org/) -->

<svg
   xmlns:dc="http://purl.org/dc/elements/1.1/"
   xmlns:cc="http://creativecommons.org/ns#"
   xmlns:rdf="http://www.w3.org/1999/02/22-rdf-syntax-ns#"
   xmlns:svg="http://www.w3.org/2000/svg"
   xmlns="http://www.w3.org/2000/svg"
   xmlns:sodipodi="http://sodipodi.sourceforge.net/DTD/sodipodi-0.dtd"
   xmlns:inkscape="http://www.inkscape.org/namespaces/inkscape"
   width="1125.6066"
   height="1594.3096"
   id="svg3111"
   version="1.1"
   inkscape:version="0.48.3.1 r9886"
   sodipodi:docname="simplified-GLich.svg">
  <defs
     id="defs3113" />
  <sodipodi:namedview
     id="base"
     pagecolor="#ffffff"
     bordercolor="#666666"
     borderopacity="1.0"
     inkscape:pageopacity="0.0"
     inkscape:pageshadow="2"
     inkscape:zoom="0.25"
     inkscape:cx="384.341"
     inkscape:cy="788.94072"
     inkscape:document-units="px"
     inkscape:current-layer="layer1"
     showgrid="false"
     inkscape:window-width="1280"
     inkscape:window-height="761"
     inkscape:window-x="0"
     inkscape:window-y="0"
     inkscape:window-maximized="1"
     fit-margin-top="100"
     fit-margin-left="100"
     fit-margin-right="100"
     fit-margin-bottom="100" />
  <metadata
     id="metadata3116">
    <rdf:RDF>
      <cc:Work
         rdf:about="">
        <dc:format>image/svg+xml</dc:format>
        <dc:type
           rdf:resource="http://purl.org/dc/dcmitype/StillImage" />
        <dc:title />
      </cc:Work>
    </rdf:RDF>
  </metadata>
  <g
     inkscape:label="Layer 1"
     inkscape:groupmode="layer"
     id="layer1"
     transform="translate(332.42047,62.191433)">
    <path
       style="fill:#000000;stroke:none"
       d="M 210.01998,37.8125 C 152.03249,37.415485 95.169584,67.103651 62.019984,114.90625 c -31.26338,37.33768 -62.53372014,74.76584 -92.78125,112.90625 -31.046712,42.47157 -36.657423,103.71083 -5.1875,147.59375 23.57456,32.99008 4.2773,86.44548 49.375,105.5 27.47119,27.00792 68.05412,53.49028 65.09375,97 -11.57656,40.72956 32.332566,64.20369 49.062496,87 -30.185856,34.49365 4.76554,22.37636 20.28125,11.875 23.42098,29.08009 30.05207,84.68554 -13.9375,98.09375 -12.6711,21.38647 55.30714,8.22873 70.15625,-3.65625 2.72072,27.20032 8.61467,68.8066 -27.25,80.34375 -10.96722,7.88009 -62.94258,31.73278 -22.59375,28.71875 38.31786,-5.7634 85.18126,-20.93881 95.15625,-63.03125 1.67306,-15.64541 7.62773,-70.38657 17.3125,-27.34375 15.40502,38.12667 -7.98188,72.93891 -43.90625,86.5 -32.51802,16.96439 -72.71835,25.07751 -93.4375,58.65625 -12.15767,10.45582 -37.371926,79.8596 -13.15625,62.59375 13.49305,-51.83819 72.72982,-63.56433 116.5,-78.875 51.37164,-7.73935 97.6497,-51.83823 96.84375,-105.875 -2.3225,-19.503 30.12179,-67.05361 30.75,-57.875 -11.52867,13.38378 -33.95507,65.29677 -3.9375,30.15625 30.79019,-37.42746 58.03337,-81.4838 83.03125,-120.40625 20.80264,-23.31868 54.49495,-59.67793 27.59375,-90.625 -33.05424,-35.29071 -4.60797,-80.2154 23.78125,-107.3125 30.48436,-20.2463 32.84669,-48.73119 18.40625,-79.75 0.4936,-48.72007 -11.46452,-96.00628 -29.625,-140.9375 C 467.93415,208.48446 440.91235,177.8154 404.70748,162.09375 351.27921,136.08407 324.35177,77.188731 273.48873,48.1875 c -18.15997,-8.204586 -38.09398,-10.792947 -57.875,-10.21875 -1.87219,-0.07577 -3.72319,-0.143443 -5.59375,-0.15625 z m 16.65625,9.5625 c 37.30117,0.489983 69.53268,23.484705 91.5,52.875 28.4238,29.48496 56.46493,60.49316 94.46875,77.71875 51.57451,25.42349 62.07148,86.87825 78.8125,136.21875 9.94668,36.19278 0.624,75.71652 18.21875,110.125 -14.60375,34.49861 -55.88658,56.05058 -65.90625,94.96875 -5.6899,15.97513 1.56053,43.05729 -8.25,13.625 9.73213,-34.76608 25.64904,-70.6554 51.03125,-97.3125 20.2234,-36.94616 -28.74492,-73.03789 -21.46875,-114.46875 4.46889,-12.56471 10.08129,-40.28535 -6.78125,-16.65625 -9.87307,39.01224 11.19365,78.29947 26.03125,113.0625 -13.97639,41.54611 -48.71711,44.51687 -81.34375,64.84375 -34.25059,21.33862 -15.30662,29.81631 6.3125,48.6875 31.13519,40.16137 32.6216,76.83732 25.84375,96.4375 -1.37037,-6.59318 -2.56899,-12.67605 -3.5625,-18.21875 -2.4395,-5.55124 -5.12628,-10.71521 -8.0625,-15.46875 -4.78988,4.38728 -12.49549,7.46362 -23.5625,8.84375 -12.99048,5.25266 -16.83577,13.09336 -16.875,22.125 -1.90598,1.45252 -3.62295,3.3499 -5,5.8125 -0.3586,-1.43777 -0.81122,-2.86836 -1.40625,-4.28125 -0.0615,-0.14606 -0.15028,-0.29068 -0.21875,-0.4375 -0.0171,-0.0432 -0.0447,-0.0824 -0.0625,-0.125 -0.0785,-0.16381 -0.1318,-0.33619 -0.21875,-0.5 -0.30766,-0.6164 -0.66392,-1.18519 -1.09375,-1.71875 -0.71469,-0.97278 -1.57813,-1.89893 -2.5625,-2.65625 -2.26548,-2.22969 -4.87818,-4.9787 -6.65625,-10.5625 -1.98588,2.05021 -2.56244,5.2225 -2.78125,8.6875 -9.88152,0.58377 -16.69228,6.20711 -19.75,13.625 -1.65367,4.01178 -2.2414,8.54991 -1.59375,13.09375 -1.42842,0.46566 -2.82409,0.93102 -4.0625,1.0625 0.008,-8.3239 -2.01586,-16.26489 -7.21875,-22.09375 -4.84043,-5.42283 -12.43976,-8.9854 -23.71875,-9.34375 -2.24966,-0.0715 -4.63738,-0.0717 -7.1875,0.125 -8.80455,2.87242 -15.00135,9.55423 -18.875,17.625 -9.31114,-10.43897 -4.11292,-19.7054 -25.1875,-18.09375 -14.82714,1.13388 -22.64474,18.31223 -23.03125,36.75 -0.88662,0.90763 -1.67515,2.15302 -2.375,3.6875 -0.0544,-3.10609 -0.45465,-6.40661 -0.9375,-9.3125 1.10469,-5.10073 0.6395,-10.27316 -1.21875,-14.78125 -3.22816,-7.83137 -10.68614,-13.63606 -21.5625,-13.5 -0.34229,-0.0624 -0.66879,-0.1036 -1,-0.125 -3.27079,-0.2162 -5.97875,1.49531 -7.9375,3.71875 -1.2733,-7.07197 -5.78548,-13.16762 -16.5,-17.5 -11.06701,-1.38014 -18.74137,-4.42522 -23.53125,-8.8125 -2.93622,4.75353 -5.65425,9.88626 -8.09375,15.4375 -1.49273,8.32785 -3.4204,17.85234 -5.78125,28.59375 -6.22014,-16.49787 -7.07731,-33.38852 0.0312,-49.1875 15.85262,-35.23291 29.42415,-78.16202 -4.5,-97.6875 -38.11931,-8.19152 -85.153966,-8.1466 -112.312496,-39.5625 -1.70813,-38.64821 16.68215,-82.49045 -10.15625,-118.6875 -1.51188,-18.23593 -46.6704,-67.43516 -25.8437501,-27.125 21.6445001,35.15201 41.9619401,77.27332 26.0000001,119.03125 -19.7117401,43.99798 41.17454,44.37522 47.375,78.125 17.63477,21.50592 34.97739,48.0479 24.96875,74.03125 3.5709,-42.56392 -32.69587,-69.75983 -59.40625,-96.875 -43.76734,-17.90295 -36.5616701,-64.49078 -51.3437,-100.34375 -12.80914,-25.54229 -30.088775,-50.95544 -25.156248,-81.21875 3.56209,-62.10255 57.919838,-102.06029 90.812498,-149.59375 27.10039,-30.74338 50.74494,-67.331083 89.406246,-84.53125 24.94083,-14.091659 53.63569,-17.51038 81.8125,-17.5625 2.63389,-0.29051 5.25465,-0.495185 7.84375,-0.5625 1.21364,-0.03155 2.42174,-0.04706 3.625,-0.03125 z m 106.65625,232.25 c -0.55665,0.0117 -1.12618,0.0328 -1.6875,0.0625 -41.34375,2.19146 -63.3944,58.17462 -56.71875,96.125 -0.80329,43.17929 38.34998,78.005 81.09375,61.625 31.56664,3.83846 76.40057,37.10735 98.03125,-3.0625 11.17647,-33.90356 12.11749,-93.85509 -23.5625,-107.25 -36.15486,-13.57318 -62.08759,-48.23644 -97.15625,-47.5 z m -177.78125,13.8125 c -36.26845,-0.17481 -63.104626,32.73675 -92.874996,51.1875 -34.14428,21.16155 -21.35611,68.5159 -5.59375,97.9375 20.17176,41.69864 67.358456,39.44608 100.749996,16.03125 34.03161,-2.60044 77.93527,-10.96653 68.34375,-57.21875 3.28324,-44.66452 -15.38426,-102.91317 -65.21875,-107.65625 -1.83087,-0.17426 -3.62256,-0.27265 -5.40625,-0.28125 z m 107.15625,145.65625 c -26.70129,11.09999 -24.05435,52.54971 -38.15625,75 15.12768,31.86787 52.71234,-12.63153 76.75,8.78125 35.30977,-15.85859 -21.75642,-48.07675 -21.1875,-73.9375 -3.75238,-5.8488 -10.47411,-9.48546 -17.40625,-9.84375 z m 144.25,170 c 0.98756,0.0177 2.05683,0.0982 3.21875,0.28125 24.10878,4.88481 25.7621,36.81176 12.75,56.1875 -3.91037,5.8228 -9.15494,10.52053 -15.5,13 -21.78407,18.54145 -7.03196,-4.37013 -4.90625,-24.5 0.77302,-7.32039 -0.0962,-14.29576 -5.03125,-18.75 -1.25014,-9.05022 -5.34457,-26.48476 9.46875,-26.21875 z m -233,1.28125 c 14.81332,-0.26601 10.71889,17.19978 9.46875,26.25 -4.93507,4.45424 -5.83553,11.39836 -5.0625,18.71875 2.1257,20.12987 16.87781,43.04145 -4.90625,24.5 -6.34506,-2.47947 -11.55837,-7.14595 -15.46875,-12.96875 -13.0121,-19.37573 -11.39003,-51.33394 12.71875,-56.21875 1.16192,-0.18308 2.26244,-0.26355 3.25,-0.28125 z m 130.53125,11.78125 c 30.66983,-0.17071 21.59134,54.15994 11.28125,54.75 -21.24841,9.85607 -5.57144,-33.48762 -27.71875,-12.28125 0.28974,-7.744 -5.06241,-37.01372 13.34375,-42.28125 1.07335,-0.12256 2.1044,-0.18199 3.09375,-0.1875 z m -48.5,0.90625 c 29.65884,0.0477 14.87523,41.74528 20,53.1875 -9.36041,-17.04064 -30.86069,21.01172 -30.90625,-10 -0.77445,-14.36844 -11.22296,-37.06238 10.90625,-43.1875 z m -50.625,0.15625 c 10.29592,-0.0874 15.50762,4.46814 18.03125,10.71875 2.82617,6.99977 2.25968,16.13845 1.71875,23.3125 -9.85394,-1.13461 -8.3466,11.71023 -19.21875,11.4375 -0.68345,-4.36105 -3.44321,-13.19106 -4.75,-22.1875 -1.32223,-9.10257 -1.13978,-18.36097 4.21875,-23.28125 z m 160.8125,1.1875 c 5.42559,4.98184 5.62002,14.34603 4.28125,23.5625 -1.32314,9.10902 -4.12049,18.05313 -4.8125,22.46875 -11.00819,0.27614 -9.4915,-12.74256 -19.46875,-11.59375 -0.54769,-7.26382 -1.11153,-16.5064 1.75,-23.59375 2.55521,-6.32883 7.82525,-10.93221 18.25,-10.84375 z m 8.78125,119.4375 c 0.0445,0.0801 0.0763,0.17206 0.125,0.25 -0.2122,0.26781 -0.4118,0.54537 -0.625,0.8125 0.17511,-0.36107 0.34095,-0.70718 0.5,-1.0625 z m -244,207.3125 c 0.0116,0.007 0.0197,0.0244 0.0312,0.0312 -0.017,0.007 -0.0457,0.0249 -0.0625,0.0312 0.0102,-0.0212 0.0211,-0.0413 0.0312,-0.0625 z"
       id="path3184"
       inkscape:connector-curvature="0" />
    <g
       id="g3907"
       transform="matrix(0.90757182,0,0,0.80389907,-79.88726,96.720608)" />
    <g
       id="g4046"
       transform="translate(7.3438442e-6,0)">
      <g
         transform="translate(-33.274267,0)"
         id="g4039">
        <path
           style="fill:#000000;stroke:#000000;stroke-width:1px;stroke-linecap:butt;stroke-linejoin:miter;stroke-opacity:1"
           d="m 107.48023,1074.9896 c -20.104514,5.5331 27.20134,67.2197 14.14214,93.3381 -2.92937,5.8587 -20.33971,22.0867 -11.31371,31.1127 6.00138,6.0014 12.86118,59.1305 5.65685,73.5391 -5.43738,10.8748 -17.968172,17.9682 -25.455842,25.4559 -1.102064,1.102 0,9.5876 0,11.3137 0,27.0387 6.516631,20.6587 19.798992,33.9411 11.67622,11.6762 -4.37948,52.1891 11.31371,67.8822 1.4659,1.4659 100.12414,-24.8912 127.27922,-11.3137 8.67397,4.337 118.38026,3.2421 121.62237,0 12.93473,-12.9347 -53.08641,0.6537 -79.19596,-25.4558 -6.32574,-6.3257 35.75392,-8.4853 42.4264,-8.4853 34.90108,0 -35.33844,-0.034 -31.11269,-8.4853 3.09146,-6.1829 22.59504,-2.8284 28.28427,-2.8284 5.65685,0 16.97056,-5.6568 16.97056,0 0,4.7141 -9.42809,0 -14.14214,0 -16.97056,0 -33.94112,0 -50.91168,0 -12.69045,0 -111.81182,1.3253 -113.13709,0 -8.38577,-8.3858 -9.26659,-24.19 -14.14214,-33.9411 -2.35387,-4.7078 -11.21125,-8.2804 -14.14213,-14.1422 -5.72145,-11.4429 15.53965,-48.0498 19.79899,-56.5685 1.65003,-3.3001 -5.65686,-109.1375 -5.65686,-124.4508 0,-24.513 0,-49.0261 0,-73.5391 0,-20.1237 -13.37815,-36.7696 -11.3137,-36.7696 5.65685,0 0,11.3137 0,16.9706 0,20.7418 0,41.4836 0,62.2254 0,4.7528 -0.60152,33.3396 -2.82843,31.1127 -7.09967,-7.0997 -19.93556,-85.2625 -25.45585,-101.8234 -0.057,-0.171 -8.69481,-47.24513 -11.31371,-36.76954 -4.73448,18.93794 1.74433,41.79064 5.65686,59.39694 2.05544,9.2495 -6.56086,19.5753 -2.82843,28.2843 1.53128,3.573 8.27824,0.4001 11.31371,2.8284 2.28937,1.8315 19.46137,61.8878 0,42.4265 -16.33265,-16.3327 -5.65686,-103.7452 -5.65686,-135.76457 0,-14.90734 -3.84141,-60.19942 -11.3137,-45.25483 -3.113837,6.22766 2.9135,126.62 5.65685,135.7645 1.35457,4.5153 7.98038,5.152 11.31371,8.4853 7.46478,7.4648 11.31371,26.6073 11.31371,33.9411 0,1.8856 0,7.5425 0,5.6569 0,-56.5472 5.08301,-81.471 -25.45585,-127.27926 -2.62993,-3.9449 -15.876768,-26.54964 -16.970559,-25.45584 -4.454439,4.45444 -4.978196,92.6139 5.656854,98.995 4.353648,2.6122 12.747325,0.775 14.142135,5.6568 5.76954,20.1934 -13.624235,9.0032 -5.65685,16.9706 4.21637,4.2164 4.48744,-11.1235 5.65685,-16.9706 z"
           id="path3990"
           inkscape:connector-curvature="0" />
        <path
           style="fill:#000000;stroke:#000000;stroke-width:1px;stroke-linecap:butt;stroke-linejoin:miter;stroke-opacity:1"
           d="m 209.30361,1117.416 c 0,13.1993 0,26.3986 0,39.598 0,35.3008 8.44915,82.1689 0,115.9655 -4.38064,17.5225 -6.92305,29.2544 -11.31371,42.4264 -0.66667,2 -2.82843,7.765 -2.82843,5.6568 0,-23.8192 11.41562,-56.6704 28.28427,-73.5391 10.28481,-10.2848 5.65686,-29.6764 5.65686,-28.2842 0,21.6846 0,43.3692 0,65.0538 0,4.4201 9.49404,33.9411 8.48528,33.9411 -3.97574,0 2.82843,-88.5391 2.82843,-98.9949 0,-3.7713 -3.77124,-11.3137 0,-11.3137 1.25399,0 12.92011,132.936 8.48528,132.936 -4.71405,0 0,-9.4281 0,-14.1421 0,-19.799 0,-39.598 0,-59.397 0,-14.4523 3.48923,-34.1263 0,-48.0832 -0.12372,-0.4949 -5.59003,-22.6275 -2.82843,-22.6275 11.31371,0 0,22.6275 0,33.9412 0,28.3799 5.65685,52.6147 5.65685,79.1959 0,22.1209 -15.47182,21.6359 -19.79899,0 -4.00729,-20.0364 0,-44.3648 0,-65.0538 0,-12.2565 0,-24.513 0,-36.7695 0,-1.8857 0,-7.5425 0,-5.6569 0,6.9229 1.50128,141.4214 -8.48528,141.4214 -4,0 6.69643,-4.9076 8.48528,-8.4853 4.20578,-8.4116 0,-30.2757 0,-39.598 0,-7.5645 1.9618,-79.6293 8.48529,-76.3675 8.1544,4.0772 28.34183,107.4802 22.62741,107.4802 -0.20594,0 0.38996,-18.2392 0,-19.799 -2.45772,-9.8309 -8.48528,-14.8362 -8.48528,-25.4558 0,-25.8679 -37.58409,-200.0038 -19.79899,-217.7889 4.55741,-4.5574 -1.52801,100.2953 -8.48528,93.3381 -6.72095,-6.721 -1.86067,-18.8126 -5.65685,-25.4559 -2.99516,-5.2415 -11.31371,-8.1052 -11.31371,-14.1421 0,-6.7987 8.55249,-10.7579 11.31371,-16.9706 0.92362,-2.0781 -0.70329,-73.5391 0,-73.5391 8.48528,0 0,16.9706 0,25.4559 0,11.2725 4.93986,38.2035 0,48.0832 -3.04047,6.081 -11.31371,10.1719 -11.31371,16.9706 0,10.631 24.26062,36.7695 11.31371,36.7695 -0.50766,0 0.68974,-18.4195 0,-19.799 -3.04047,-6.0809 -10.74911,-10.1953 -11.31371,-16.9705 -0.52523,-6.3027 6.48528,-10.9706 8.48528,-16.9706 3.66234,-10.987 -2.82843,-34.8819 -2.82843,-48.0832 0,-5.7761 -11.61153,-42.1286 -16.97056,-36.7696 -3.25594,3.256 -4.10188,81.5284 0,87.6812 7.5355,11.3033 12.3275,19.2112 14.14213,28.2843"
           id="path3992"
           inkscape:connector-curvature="0" />
        <path
           style="fill:#000000;stroke:#000000;stroke-width:1px;stroke-linecap:butt;stroke-linejoin:miter;stroke-opacity:1"
           d="m 379.69173,1043.8769 c -7.35868,3.354 -62.82502,7.8978 -63.96101,11.3137 -3.35752,10.0962 -0.75688,24.9034 -3.7624,33.9412 -4.16857,12.535 -11.49835,15.0943 -15.04965,31.1127 -1.24203,5.6022 1.74084,14.5642 0,19.7989 -11.06557,33.2746 -28.21809,18.5072 -28.21809,73.5391 0,5.5816 -1.62253,17.7485 0,22.6275 6.19447,18.627 26.74813,23.864 30.09929,33.9411 4.35941,13.1089 -6.63961,52.2426 0,62.2254 4.80692,7.2273 52.93257,-11.1192 63.96101,-2.8284 14.3878,10.8161 1.10231,33.9411 30.0993,33.9411 12.38027,0 27.29676,2.1068 37.62411,-5.6569 2.03068,-1.5266 17.34698,-19.1733 18.81206,-16.9705 2.3191,3.4868 -13.8871,5.6568 -16.93085,5.6568 -8.66548,0 -16.50204,5.6569 -26.33688,5.6569 -12.82598,0 30.07084,-5.6141 31.9805,-8.4853 9.66271,-14.5281 11.60039,-29.2259 16.93085,-45.2548 1.0652,-3.2031 -2.159,-22.6275 1.88121,-22.6275 20.06619,0 -48.91136,75.0896 -48.91136,56.5686 0,-6.9839 19.60184,-16.517 22.57447,-25.4559 2.06002,-6.1945 -0.1973,-16.3772 1.88121,-22.6274 4.63472,-13.9367 16.93085,-28.8252 16.93085,-45.2548 0,-14.8419 -0.26364,17.367 -9.40603,31.1127 -9.2575,13.9188 -61.66696,51.5324 -71.48583,36.7695 -12.19626,-18.3373 12.89141,-33.1371 22.57448,-28.2842 5.00021,2.5059 18.3082,23.3849 26.33688,11.3137 9.08251,-13.6557 15.49609,-29.6268 20.69327,-45.2549 1.98296,-5.9628 -2.55284,-19.7989 1.8812,-19.7989 3.97029,0 -10.21131,24.3774 -11.28723,25.4558 -13.76518,13.7975 -22.70495,34.0065 -39.50533,42.4264 -11.42244,5.7246 -40.57192,6.8816 -48.91135,-5.6568 -5.10352,-7.6733 -2.46746,-38.6245 -7.52483,-42.4265 -5.88449,-4.4237 -19.97506,-1.7486 -24.45567,-8.4852 -1.45476,-2.1873 -0.80839,-31.5103 0,-33.9412 2.08358,-6.2654 7.05066,-4.9439 9.40602,-8.4852 5.12751,-7.7093 -3.37333,-37.9396 0,-48.0833 2.6408,-7.941 18.45243,-10.773 22.57448,-16.9706 4.64768,-6.9879 -3.70137,-34.0788 0,-42.4264 17.004,-38.3487 40.43191,-13.4455 54.55497,-2.8284 3.85481,2.8979 8.56897,-1.2585 11.28724,2.8284 4.65676,7.0016 12.70855,24.7644 16.93085,31.1127 1.27462,1.9164 10.95844,31.1127 9.40603,31.1127 -1.88121,0 0,-5.6568 0,-8.4853 0,-10.3709 0,-20.7418 0,-31.1127 0,-2.434 -2.53902,-31.1127 -1.88121,-31.1127 12.63,0 20.69327,133.9981 20.69327,31.1127 0,-22.1743 -8.84912,-57.2322 -24.45568,-65.0538 -8.18538,-4.1023 -17.17234,-8.4853 -26.33688,-8.4853 -1.40217,0 -5.16458,-2.8284 -3.76241,-2.8284 22.74488,0 45.65984,-1.6296 65.84221,8.4853 6.80068,3.4083 30.03151,50.606 24.45567,25.4558 C 471.1239,995.25303 350.2678,988.57763 379.69173,1043.8769 z"
           id="path3994"
           inkscape:connector-curvature="0" />
        <path
           style="fill:#000000;stroke:#000000;stroke-width:1px;stroke-linecap:butt;stroke-linejoin:miter;stroke-opacity:1"
           d="m 480.83261,905.28397 c -5.50324,12.31935 -20.61824,101.00413 -11.31371,110.30863 8.53487,8.5348 23.18927,-29.97935 31.1127,-33.94105 24.52564,-12.2629 -2.91152,36.76945 5.65685,36.76945 7.31956,0 25.45585,-70.39611 25.45585,-28.28425 0,18.76055 -3.61244,27.02385 -11.31371,42.42635 -17.9862,35.9724 22.62197,121.6279 -16.97056,161.2204 -4.29304,4.293 -11.22623,36.7695 -16.97057,36.7695 -12.92313,0 22.62742,-44.7061 22.62742,-42.4264 0,27.0188 -8.48528,45.5329 -8.48528,70.7107 0,8.9295 -8.98154,61.7292 -2.82843,67.8823 1.69036,1.6903 5.65686,-3.0572 5.65686,2.8284 0,13.2673 -19.79899,30.5604 -19.79899,45.2548 0,7.8102 -2.82843,11.9889 -2.82843,19.799 0,2.8284 2.82843,8.4853 0,8.4853 -10.39667,0 10.22815,-88.3386 14.14213,-96.1665 3.05399,-6.108 12.02081,-55.8615 14.14214,-53.7401 20.95469,20.9547 11.31371,71.2814 11.31371,98.9949 0,19.915 2.82843,45.9438 2.82843,42.4264 0,-32.9983 0,-65.9966 0,-98.9949 0,-22.5987 -2.82843,-43.0149 -2.82843,-42.4264 0,9.7821 42.27635,127.2792 28.28427,127.2792 -11.31371,0 0,-22.6274 0,-33.9411 0,-8.5833 -6.73387,-126.2022 -25.45584,-107.4803 -5.14869,5.1487 38.80958,106.6919 42.4264,110.3087 6.70313,6.7031 0,37.5856 0,36.7695 0,-23.0695 9.09205,-111.9235 0,-130.1076 -6.29607,-12.5922 -8.48528,-26.1074 -8.48528,-42.4264 0,-17.9134 0,-35.8268 0,-53.7401 0,-9.4281 0,-37.7124 0,-28.2843 0,6.0812 -20.1624,59.0336 -25.45584,53.7401 -14.0677,-14.0677 12.19621,-72.4757 16.97056,-82.0244 2.8889,-5.7778 1.11265,-18.0832 5.65685,-22.6274 2.26936,-2.2693 11.31371,-1.8021 11.31371,-5.6568 0,-3.7713 0,-15.085 0,-11.3138 0,15.6984 -25.45584,31.303 -25.45584,28.2843 0,-26.0903 0.46049,-52.2932 8.48528,-76.3675 6.56129,-19.68385 22.62742,-47.35625 22.62742,-65.05379 0,-13.19933 0,-26.39865 0,-39.59798 0,-2.82843 2.82842,-8.48528 0,-8.48528 -18.82253,0 -22.58845,73.5391 -39.59798,73.5391 -3.77124,0 0,-7.5425 0,-11.3137 0,-16.02776 0,-32.05551 0,-48.08327 0,-3.83134 2.40548,-26.72468 2.82842,-25.45584 4.37663,13.12986 3.03846,89.63691 -19.79899,82.02441 -11.07552,-3.6919 -5.65685,-39.52545 -5.65685,-48.08329 0,-83.42602 3.16651,74.55339 -16.97056,14.14214 -3.81239,-11.43715 -6.11171,-18.33513 -11.31371,-33.94113 z"
           id="path3996"
           inkscape:connector-curvature="0" />
        <path
           style="fill:#000000;stroke:#000000;stroke-width:1px;stroke-linecap:butt;stroke-linejoin:miter;stroke-opacity:1"
           d="m 528.91587,1117.416 c 4.16938,-3.127 11.04663,-9.3391 16.97056,-11.3137 10.64027,-3.5468 31.31762,-8.6902 39.59798,-16.9706 11.82124,-11.8212 24.4761,-62.2254 39.59798,-62.2254 9.42809,0 0,18.8562 0,28.2843 0,2.2153 -1.53706,24.6873 0,25.4559 10.10851,5.0542 54.13221,-20.1911 62.2254,-28.2843 9.09729,-9.0973 30.24428,-24.8106 33.94113,-39.598 2.29805,-9.1922 -6.64669,-28.28427 2.82842,-28.28427 5.95584,0 -3.69599,51.77927 -8.48528,56.56857 -10.52376,10.5237 -18.96564,23.6249 -33.94112,31.1127 -9.70119,4.8506 -28.35241,5.725 -33.94113,11.3137 -11.89623,11.8962 55.7483,-4.4689 56.56854,-2.8284 10.0122,20.0243 0,69.2887 0,93.338 0,11.3073 28.62879,19.799 19.79899,19.799 -3.42718,0 -43.16592,-33.3312 -45.25483,-39.5979 -5.16333,-15.49 -8.48528,-30.3311 -8.48528,-48.0833 0,-9.4281 0,18.8562 0,28.2843 0,21.9755 2.82843,43.6023 2.82843,65.0538 0,28.6248 15.41598,82.3051 2.82842,107.4802 -12.07841,24.1569 -19.07682,60.1192 2.82843,82.0244 2.88339,2.8834 -3.11447,5.5138 2.82843,8.4853 11.14186,5.5709 -20.56325,-21.3275 -25.45585,-31.1127 -10.40208,-20.8042 -23.97973,-77.8437 -2.82842,-98.995 3.62036,-3.6203 2.82842,35.0136 2.82842,45.2549 0,42.5327 11.26149,99.021 -28.28427,118.7939 -5.90869,2.9544 11.31371,-21.0081 11.31371,-50.9117 0,-8.4853 0,-33.9411 0,-25.4558 0,82.1197 -45.9146,54.7297 -11.31371,2.8284 12.718,-19.077 22.62742,-41.7314 22.62742,-65.0538 0,-9.4281 0,-18.8562 0,-28.2843 0,-2.8284 0,-11.3137 0,-8.4853 0,25.4954 -6.35194,45.95 -22.62742,62.2254 -4.13748,4.1375 0,32.5965 0,39.598 0,5.5295 -4.42912,52.1394 -11.31371,45.2548 -1.99917,-1.9991 0,-16.7337 0,-19.7989 0,-47.4747 20.02787,-102.0523 45.25484,-127.2793 4.30342,-4.3034 -0.9071,-128.1863 -2.82843,-130.1076 -2.35233,-2.3523 -7.85759,-7.8576 -11.31371,-11.3137 -2.86645,-2.8665 -23.78025,0 -28.28427,0 -14.90577,0 -33.94113,-11.6817 -33.94113,11.3137 0,4.714 -3.33333,17.4755 0,14.1421 18.9545,-18.9545 59.89055,-11.8073 48.08327,0 -4.71405,4.7141 -23.57023,-4.714 -28.28428,0 -2.1188,2.1188 -34.91268,24.4843 -45.25483,14.1422 -6.23111,-6.2312 2.20855,-23.2473 -2.82843,-28.2843 -2.25754,-2.2576 -11.17471,1.4837 -14.14213,0 -4.91709,-2.4586 -9.22505,-10.9438 -14.14214,-8.4853 -4.29987,2.1499 7.63583,14.1421 2.82843,14.1421 -4.8074,0 -1.66246,-9.4782 -2.82843,-14.1421 z"
           id="path3998"
           inkscape:connector-curvature="0" />
      </g>
      <text
         sodipodi:linespacing="125%"
         id="text4000"
         y="1343.0074"
         x="-251.40817"
         style="font-size:377.5418396px;font-style:normal;font-variant:normal;font-weight:normal;font-stretch:normal;text-align:start;line-height:125%;letter-spacing:0px;word-spacing:0px;text-anchor:start;fill:#000000;fill-opacity:1;stroke:none;font-family:Liberation Sans;-inkscape-font-specification:Liberation Sans"
         xml:space="preserve"><tspan
           y="1343.0074"
           x="-251.40817"
           id="tspan4002"
           sodipodi:role="line">G</tspan></text>
    </g>
  </g>
</svg>
