<?xml version="1.0" encoding="UTF-8" standalone="no"?>
<!-- Created with Inkscape (http://www.inkscape.org/) -->

<svg
   xmlns:dc="http://purl.org/dc/elements/1.1/"
   xmlns:cc="http://creativecommons.org/ns#"
   xmlns:rdf="http://www.w3.org/1999/02/22-rdf-syntax-ns#"
   xmlns:svg="http://www.w3.org/2000/svg"
   xmlns="http://www.w3.org/2000/svg"
   xmlns:sodipodi="http://sodipodi.sourceforge.net/DTD/sodipodi-0.dtd"
   xmlns:inkscape="http://www.inkscape.org/namespaces/inkscape"
   width="744.09448819"
   height="1052.3622047"
   id="svg3952"
   version="1.1"
   inkscape:version="0.48.3.1 r9886"
   sodipodi:docname="New document 7">
  <defs
     id="defs3954" />
  <sodipodi:namedview
     id="base"
     pagecolor="#ffffff"
     bordercolor="#666666"
     borderopacity="1.0"
     inkscape:pageopacity="0.0"
     inkscape:pageshadow="2"
     inkscape:zoom="0.35"
     inkscape:cx="375"
     inkscape:cy="520"
     inkscape:document-units="px"
     inkscape:current-layer="layer1"
     showgrid="false"
     inkscape:window-width="414"
     inkscape:window-height="416"
     inkscape:window-x="0"
     inkscape:window-y="0"
     inkscape:window-maximized="0" />
  <metadata
     id="metadata3957">
    <rdf:RDF>
      <cc:Work
         rdf:about="">
        <dc:format>image/svg+xml</dc:format>
        <dc:type
           rdf:resource="http://purl.org/dc/dcmitype/StillImage" />
        <dc:title></dc:title>
      </cc:Work>
    </rdf:RDF>
  </metadata>
  <g
     inkscape:label="Layer 1"
     inkscape:groupmode="layer"
     id="layer1">
    <path
       inkscape:connector-curvature="0"
       style="opacity:0.98999999;fill:#242424;stroke:none"
       d="m 354.63718,23.991097 c -57.70997,-0.331338 -110.16089,24.41779 -146.34375,64.312504 -21.27171,19.424649 -43.35673,35.743949 -62.5,63.593749 -11.56633,16.82679 -20.5452,46.82384 -31.9375,58.8125 -31.046721,35.44558 -36.657431,161.14833 -5.1875,205.03125 23.57456,32.99008 4.2773,86.44548 49.375,105.5 27.47119,27.00792 68.05412,53.49028 65.09375,97 -11.57656,40.72956 32.33258,64.20369 49.0625,87 -30.18585,34.49365 4.76554,22.37636 20.28125,11.875 23.42098,29.08009 30.05207,84.68554 -13.9375,98.09375 -12.6711,21.38647 55.30714,8.22873 70.15625,-3.65625 2.72072,27.20032 8.61467,68.8066 -27.25,80.34375 -10.96722,7.88009 -62.94257,31.73278 -22.59375,28.71875 38.31786,-5.7634 85.18126,-20.93881 95.15625,-63.03125 1.67306,-15.64541 7.62773,-70.38657 17.3125,-27.34375 15.40502,38.12667 -7.98188,72.93891 -43.90625,86.5 -32.51802,16.96439 -72.71835,25.07751 -93.4375,58.65629 -12.15766,10.4558 -37.37193,79.85951 -13.15625,62.59371 13.49304,-51.83821 72.72982,-63.56431 116.5,-78.875 51.37164,-7.73935 97.6497,-51.83823 96.84375,-105.875 -2.3225,-19.503 30.12178,-67.05361 30.74999,-57.875 -11.52867,13.38378 -33.95506,65.29677 -3.9375,30.15625 30.79019,-37.42746 58.03337,-81.4838 83.03125,-120.40625 20.80264,-23.31868 54.49495,-59.67793 27.59375,-90.625 -33.05424,-35.29071 -4.60797,-80.2154 23.78125,-107.3125 30.48436,-20.2463 32.84669,-48.73119 18.40625,-79.75 -7.97701,-55.92009 -12.20058,-186.61976 -16.40625,-214.21875 -11.61708,-31.43982 -15.51356,-72.37915 -55.03125,-85.5 -25.12347,-9.35153 -36.03552,-31.623219 -59.875,-46.968749 -31.49718,-20.274807 -75.42416,-34.317253 -104.37499,-48.093754 -18.15997,-6.847318 -38.09398,-9.010459 -57.875,-8.53125 -1.87219,-0.06324 -3.73214,-0.114312 -5.59375,-0.125 z m 13.125,8.09375 c 39.85904,-0.04204 82.35487,25.591734 121.68749,42.218754 14.00803,11.11052 27.9626,22.48675 42.84375,32.937499 18.07727,12.69531 35.96682,25.8337 58.71875,33.71875 39.63586,28.1688 28.14324,164.31112 45.0625,213.5625 9.94668,36.19278 0.624,75.71652 18.21875,110.125 -14.60375,34.49861 -55.88658,56.05058 -65.90625,94.96875 -5.6899,15.97513 1.56053,43.05729 -8.25,13.625 9.73213,-34.76608 25.64904,-70.6554 51.03125,-97.3125 20.2234,-36.94616 -28.74492,-73.03789 -21.46875,-114.46875 4.46889,-12.56471 10.08129,-40.28535 -6.78125,-16.65625 -9.87307,39.01224 11.19365,78.29947 26.03125,113.0625 -13.97639,41.54611 -63.01176,45.19691 -92.40625,69.96875 -28.80215,26.13125 56.64728,90.71117 1.03125,85.4375 -12.85761,5.86941 -17.6067,14.35245 -18.46875,24.15625 -2.81674,-3.1627 -6.64887,-5.335 -11.15625,-4.40625 -22.84387,-0.32265 -37.6557,23.08295 -33.62499,44.09375 -2.21914,15.07747 -4.54543,42.18554 12.78124,32.3125 1.79115,15.39934 16.59301,8.62925 22.375,17.21875 -8.4986,12.23201 -11.72512,26.65579 10.375,12.75 23.73487,-20.43973 60.21909,-34.8541 61.125,-71 0.66929,-44.78431 -23.99348,-84.34231 -40.125,-124.5 -0.35868,-15.92168 60.44487,-45.03147 51.71875,-27.75 -14.11614,25.6413 -35.41767,59.90165 -9.5,85.28125 20.14961,23.16149 24.43475,58.42967 3.65626,82.46875 -24.00309,32.81281 -42.23641,69.49353 -67.65626,101.34375 10.47898,-21.60706 -8.12243,-33.15144 -16.5,-7.03125 -30.12426,28.07869 -38.44136,67.8832 -44.24999,106.53125 -13.71598,41.52485 -57.1781,60.857 -96.71875,69.03125 -28.67142,4.47215 -76.99025,34.29034 -86.0625,37.78124 17.97377,-37.38873 59.03323,-49.13191 93.875,-64.12499 37.85902,-15.42618 67.15455,-50.9435 53.8125,-93.46875 -1.39165,-23.91317 -27.73663,-63.14568 -33,-17.5 -1.01752,38.53492 -18.30367,80.13586 -61.09375,86.875 -28.14066,7.05947 53.115,-27.57303 32.03125,-58.15625 -3.09243,-24.00234 8.89134,-72.70771 -25.8125,-38.125 -19.28791,8.52062 -48.15211,14.36455 -20.71875,-9.28125 23.32766,-30.89391 -12.05468,-67.95594 -12.6875,-92.90625 47.35913,-29.23534 35.63401,-40.43506 36.125,-62.46875 0.58959,-26.45879 -35.88838,-18.98909 -49.1875,-14.1875 10.21053,-29.82118 27.96156,-76.49639 -5.21875,-95.59375 -38.1193,-8.19152 -85.15397,-8.1466 -112.3125,-39.5625 -1.70813,-38.64821 16.68215,-82.49045 -10.15625,-118.6875 -1.51188,-18.23593 -46.6704,-67.43516 -25.84375,-27.125 21.6445,35.15201 41.96194,77.27332 26,119.03125 -19.71174,43.99798 41.17454,44.37522 47.375,78.125 17.63477,21.50592 34.97739,48.0479 24.96875,74.03125 3.5709,-42.56392 -32.69587,-69.75983 -59.40625,-96.875 -43.76739,-17.90295 -36.56172,-64.49078 -51.34375,-100.34375 -12.80914,-25.54229 -30.088781,-50.95544 -25.156251,-81.21875 0.2154,-35.63622 28.802221,-143.94867 96.843751,-218.28125 29.58013,-25.657569 44.7137,-60.207725 83.375,-74.562503 24.94083,-11.760504 53.63569,-14.644002 81.8125,-14.6875 2.63207,-0.241369 5.28023,-0.372197 7.9375,-0.375 z m 102.6875,273.812503 c -41.15679,4.49745 -62.3944,48.20587 -55.71875,86.15625 -0.80329,43.17929 38.34998,78.005 81.09374,61.625 31.56664,3.83846 76.40057,37.10735 98.03125,-3.0625 11.17647,-33.90356 8.82612,-87.21411 -23.59375,-107.25 -35.89028,-7.45121 -66.6076,-25.9886 -99.81249,-37.46875 z m -169.6875,4.03125 c -39.23157,0.52153 -66.55375,32.36717 -98.28125,50.90625 -33.63103,21.96808 -21.35611,68.5159 -5.59375,97.9375 20.17176,41.69864 67.35846,39.47733 100.75,16.0625 34.03161,-2.60044 77.93527,-10.99778 68.34375,-57.25 3.28324,-44.66452 -15.96441,-98.71293 -65.21875,-107.65625 z m 102.3125,134.5625 c -26.70129,14.14743 -14.32105,79.79236 -25.40625,108.40625 11.89154,40.61702 41.44828,-16.13529 60.34375,11.15625 27.75623,-20.21247 -18.10017,-74.07057 -17.53125,-107.03125 -3.75238,-7.45455 -10.47411,-12.07459 -17.40625,-12.53125 z m -190.25,84.21875 c 25.52713,15.62376 83.49779,-3.53329 79.3125,40.96875 -1.76763,38.67006 -25.92903,73.31026 -15.5,113.09375 -12.75489,1.06278 -35.29245,-31.94298 -32.1875,-53.25 9.84519,-38.04811 -8.31469,-67.25652 -30.21875,-96.375 -0.29678,-1.53234 -0.69704,-3.02646 -1.40625,-4.4375 z m 211.59375,79.09375 c -32.72446,8.71905 -41.66173,72.72186 -25.9375,89.6875 17.43407,-22.27506 11.53585,-11.88594 15.375,7.96875 18.22489,-3.00902 39.487,27.69465 38.625,-8.71875 15.2821,-30.21313 24.77452,-87.4212 -28.0625,-88.9375 z m 1.1875,9.96875 c 40.15239,-0.65347 21.45193,79.93687 9.09375,79.28125 -25.8601,10.92235 -1.82559,-48.20575 -30.28125,-21.34375 1.39772,-10.92143 -0.76437,-53.1055 21.1875,-57.9375 z m 119.65624,3.53125 c 1.08813,0.0221 2.251,0.14725 3.53125,0.375 34.54703,7.90252 27.22398,72.71483 -3.03125,86.0625 -32.73125,31.45193 9.42169,-33.00409 -10.96875,-53.78125 -1.37746,-11.25791 -5.85318,-32.98721 10.46875,-32.65625 z m -230.28124,9.71875 c 43.72023,17.71475 -28.01597,82.50085 -30.6875,69.625 6.50191,-26.02748 -9.69591,-65.512 30.6875,-69.625 z m 294.56249,0.40625 c 4.88229,9.88673 0.45707,14.71941 0,0 z m -375.49999,2.40625 c 4.49711,23.09749 2.78794,24.42966 0,0 z m 275.28124,7.28125 c 14.2025,14.72282 1.08283,55.26555 -0.75,68.46875 -14.49257,0.41044 -12.48971,-18.95747 -25.62499,-17.25 -1.36494,-20.43673 -2.7191,-51.49752 26.37499,-51.21875 z m 13.25,22.78125 c 4.45058,18.54068 9.91279,37.85304 -3.09375,52.03125 -1.37452,0.97908 -2.76881,2.21729 -4.15625,3.625 6.12545,-16.879 6.85581,-36.72592 7.25,-55.65625 z"
       id="path3184-3" />
    <path
       style="color:#000000;fill:#242424;fill-opacity:1;fill-rule:nonzero;stroke:none;stroke-width:5;marker:none;visibility:visible;display:inline;overflow:visible;enable-background:accumulate"
       d="m 213.45344,527.53357 c -5.30928,4.34069 3.51772,11.27107 5.25045,15.85191 16.58523,22.46274 30.4987,49.93405 24.88598,78.81698 -5.15617,22.36052 7.17894,45.46712 24.06656,59.31448 2.83014,2.58703 12.59857,6.51683 10.80865,-1.01165 -9.05823,-42.27651 19.43719,-81.40825 14.58902,-123.52746 -3.0131,-17.37669 -24.35945,-19.48712 -38.44259,-21.72379 -14.0771,-1.37343 -27.93236,-3.52119 -41.15807,-7.72047 z"
       id="path3802-1"
       inkscape:connector-curvature="0" />
    <path
       style="color:#000000;fill:#242424;fill-opacity:1;fill-rule:nonzero;stroke:none;stroke-width:5;marker:none;visibility:visible;display:inline;overflow:visible;enable-background:accumulate"
       d="m 589.57323,508.68499 c -18.00652,3.81122 -34.9764,14.02292 -47.7604,27.20799 -6.45078,8.12784 3.52665,18.1044 4.95174,26.46256 14.83594,36.98319 36.41501,75.26208 30.0832,116.44592 -7.09969,24.97204 -32.13418,37.58506 -50.91797,53.13402 -5.98573,3.24959 -12.35997,11.41867 -19.63112,9.26864 0.57505,-14.58692 17.37331,-22.11659 21.13811,-35.78036 5.0237,-17.60369 -1.00248,-36.396 -6.28286,-52.97837 -5.11329,5.27891 -2.33287,16.85383 -4.41931,24.70549 -1.52385,13.4609 -4.6021,26.5422 -9.90349,38.97504 -5.75272,-10.51275 -21.64892,-13.05682 -24.17304,-25.45091 -5.24153,-1.82799 -14.02074,1.84865 -15.65391,-6.4426 -3.01514,-5.24271 0.0144,-15.16101 -5.16472,-18.10316 -7.12716,14.02333 -9.72234,30.26008 -14.10982,45.04492 -8.11624,2.18687 -16.47718,-5.54721 -24.599,-6.86855 -4.62548,-0.68221 -8.55251,-1.97746 -7.98669,-7.56073 0.63362,-5.47731 -3.39576,-17.48992 -10.00998,-10.43594 -2.47965,1.25983 -6.42679,11.00698 -8.14642,4.47255 -2.45591,-3.90913 -1.50609,-10.84168 -5.75042,-13.09817 -4.30473,4.47435 -2.27811,12.98445 -5.27121,18.74209 -0.4732,5.01942 -5.11271,12.3675 -10.43595,7.401 -6.41869,-7.95769 -11.61736,-4.94154 -14.74875,3.4609 -6.56051,8.96158 -16.76977,-1.92424 -20.60565,-7.93345 -7.9427,-7.23145 -1.31836,-17.98188 -4.09984,-26.67554 -5.47332,-1.77387 -9.26318,7.11343 -13.63061,9.79701 -7.43769,8.12802 -16.49718,15.50108 -22.6822,24.38602 4.902,26.68669 25.36535,51.28674 18.42263,79.33444 -1.61234,10.5256 -13.57153,15.09639 -15.97338,24.97172 1.47384,8.68422 13.73006,4.52531 19.27454,2.87521 11.94313,-2.55189 20.76847,-11.61363 31.62729,-16.07987 6.02536,1.6521 3.69108,11.60626 4.68553,16.39933 -0.66715,14.81202 1.40939,29.43919 4.4193,43.71381 -5.29346,21.04327 -27.14107,29.82647 -40.03994,45.04493 1.96901,5.83542 10.67261,0.79025 15.01498,0.37271 29.68086,-7.89284 48.46065,-37.56068 53.03161,-66.76872 3.16414,-12.54425 -0.3132,-29.0517 10.06323,-38.54908 9.33498,1.32232 12.87131,13.10408 16.34609,20.55241 8.29911,21.86012 11.77059,48.67009 -2.28952,69.16473 -21.06537,34.33286 -62.98455,41.75636 -95.89351,59.84692 -17.95694,9.9062 -35.51851,23.52845 -44.03328,42.59569 3.36425,5.1389 10.73676,-3.2451 15.32524,-3.8279 28.28307,-14.70596 57.07478,-28.55867 88.57839,-34.82343 35.84937,-10.17889 74.83975,-33.0834 82.66543,-72.31042 6.26357,-33.64268 14.59246,-69.03745 38.54907,-94.61564 6.34446,-5.32115 7.31894,-17.28246 16.18636,-18.90183 7.26029,3.60739 0.26847,14.11924 4.36605,19.11481 6.90115,-2.8589 9.71032,-12.57021 14.87728,-18.05469 20.43196,-31.14948 40.77097,-62.12098 60.57031,-93.65247 13.76689,-24.76204 4.21518,-55.15565 -12.67686,-75.78823 -13.83702,-15.40465 -9.17036,-38.41105 -1.17455,-55.58243 3.72529,-10.59497 12.53098,-19.61858 13.53194,-30.91885 -1.08121,-2.01648 -3.55634,-2.47596 -5.64392,-2.28952 z"
       id="path3804-4"
       inkscape:connector-curvature="0" />
  </g>
</svg>
