<?xml version="1.0" encoding="UTF-8" standalone="no"?>
<!-- Created with Inkscape (http://www.inkscape.org/) -->

<svg
   xmlns:dc="http://purl.org/dc/elements/1.1/"
   xmlns:cc="http://creativecommons.org/ns#"
   xmlns:rdf="http://www.w3.org/1999/02/22-rdf-syntax-ns#"
   xmlns:svg="http://www.w3.org/2000/svg"
   xmlns="http://www.w3.org/2000/svg"
   xmlns:sodipodi="http://sodipodi.sourceforge.net/DTD/sodipodi-0.dtd"
   xmlns:inkscape="http://www.inkscape.org/namespaces/inkscape"
   width="744.09448819"
   height="1052.3622047"
   id="svg3111"
   version="1.1"
   inkscape:version="0.48.3.1 r9886"
   sodipodi:docname="New document 7">
  <defs
     id="defs3113" />
  <sodipodi:namedview
     id="base"
     pagecolor="#ffffff"
     bordercolor="#666666"
     borderopacity="1.0"
     inkscape:pageopacity="0.0"
     inkscape:pageshadow="2"
     inkscape:zoom="0.35355339"
     inkscape:cx="596.20127"
     inkscape:cy="368.53323"
     inkscape:document-units="px"
     inkscape:current-layer="layer1"
     showgrid="false"
     inkscape:window-width="1280"
     inkscape:window-height="761"
     inkscape:window-x="0"
     inkscape:window-y="0"
     inkscape:window-maximized="1" />
  <metadata
     id="metadata3116">
    <rdf:RDF>
      <cc:Work
         rdf:about="">
        <dc:format>image/svg+xml</dc:format>
        <dc:type
           rdf:resource="http://purl.org/dc/dcmitype/StillImage" />
        <dc:title></dc:title>
      </cc:Work>
    </rdf:RDF>
  </metadata>
  <g
     inkscape:label="Layer 1"
     inkscape:groupmode="layer"
     id="layer1">
    <path
       style="fill:#242424"
       d="m 255.08125,988.3775 c -0.45233,-0.8452 -0.28075,-2.6288 0.58034,-6.0323 0.67235,-2.6578 2.00226,-8.2071 2.95523,-12.3319 0.95297,-4.1248 2.55508,-9.994 3.56023,-13.0428 3.08553,-9.3592 9.83674,-23.1962 14.00006,-28.6941 1.49386,-1.9727 4.06746,-5.4943 5.71914,-7.8257 6.01422,-8.4893 19.06386,-20.1606 29.07153,-26.0008 5.73655,-3.3478 27.86495,-14.1098 30.79227,-14.9757 4.2528,-1.2581 17.10406,-5.9413 17.84723,-6.5039 0.40629,-0.3077 1.739,-0.9568 2.9615,-1.4426 1.2225,-0.4859 5.33098,-2.7624 9.12996,-5.059 3.79897,-2.2965 7.739,-4.6627 8.75569,-5.2582 2.6649,-1.5609 17.69613,-11.4886 20.09111,-13.2696 4.26897,-3.1744 14.42879,-13.353 15.59859,-15.6274 2.76468,-5.3749 3.87267,-13.5743 3.87267,-28.6579 0,-13.5607 -0.0795,-14.4497 -1.92655,-21.5511 -3.42993,-13.1872 -9.34862,-27.2972 -11.4502,-27.2972 -1.53123,0 -4.7078,6.6291 -6.40623,13.3688 -2.39485,9.5038 -2.3912,9.4813 -3.04073,18.5694 -0.3279,4.5882 -0.87889,9.6236 -1.22439,11.1898 -0.34551,1.5663 -0.97789,4.6086 -1.4053,6.7606 -0.96393,4.8537 -3.32832,10.5926 -6.23811,15.1413 -1.22087,1.9085 -2.21975,3.6884 -2.21975,3.9552 0,1.0479 -4.63078,7.1919 -8.24996,10.9457 -8.33897,8.6493 -17.05755,13.9955 -30.6154,18.7733 -3.55208,1.2518 -8.84491,3.1504 -11.76186,4.2192 -2.91689,1.0688 -7.02537,2.2919 -9.12996,2.7179 -2.10452,0.4261 -6.87159,1.5001 -10.59342,2.3867 -8.23593,1.9621 -21.81928,4.3703 -24.65531,4.3712 -2.39342,0 -4.1193,-1.189 -4.1193,-2.8397 0,-1.6039 1.24767,-2.4685 5.29628,-3.6702 3.54947,-1.0536 12.64101,-5.7145 13.33411,-6.8358 0.20718,-0.3353 2.04269,-1.4998 4.07893,-2.5877 6.09529,-3.2567 10.79115,-6.0251 13.8534,-8.1672 1.59044,-1.1124 3.20573,-2.1396 3.58951,-2.2824 1.39551,-0.5195 14.88619,-10.1295 18.8514,-13.4286 2.23879,-1.8628 4.97217,-4.7974 6.07409,-6.5214 3.19183,-4.9936 3.72261,-8.2158 3.63157,-22.0467 -0.0695,-10.5486 -0.61568,-38.6287 -0.8215,-42.2261 -0.0937,-1.6386 -2.05835,-1.412 -4.66658,0.5383 -3.33569,2.4943 -5.38328,3.4612 -13.84799,6.5395 -14.30057,5.2005 -21.99497,6.4796 -43.1779,7.1774 -12.31865,0.4059 -13.12907,0.359 -14.5969,-0.8426 -2.35866,-1.931 -1.07016,-3.6728 3.53388,-4.7773 4.53648,-1.0883 11.5805,-4.6712 16.01563,-8.1462 3.89784,-3.054 10.30492,-11.0031 13.84258,-17.1741 3.93331,-6.86124 4.68184,-10.52763 4.68184,-22.93244 0,-9.84959 -0.15652,-11.31227 -1.84934,-17.28169 -2.65447,-9.36036 -18.88994,-41.41087 -20.97711,-41.41087 -0.11915,0 -2.11809,1.54068 -4.44212,3.42374 -9.72777,7.88182 -20.52948,15.48831 -21.99445,15.48831 -1.21082,0 -3.23422,-1.61894 -3.23422,-2.58775 0,-0.29601 1.54857,-2.54935 3.44134,-5.00752 1.89271,-2.45811 4.42105,-5.92815 5.61845,-7.71123 2.78411,-4.14571 6.56626,-12.69481 6.12496,-13.8448 -0.5193,-1.35319 -11.94974,-10.01836 -16.59702,-12.58179 -6.13253,-3.38265 -21.39794,-18.88055 -26.28044,-26.68066 -6.65698,-10.63477 -6.93244,-11.88844 -7.53704,-34.29824 -0.66962,-24.82082 -2.75718,-37.5335 -7.50769,-45.72026 -3.32181,-5.72468 -9.94376,-13.91875 -16.55104,-20.48071 -3.79702,-3.77093 -12.43467,-12.79035 -19.19475,-20.04305 -12.7554,-13.68495 -19.35146,-19.32583 -31.37255,-26.82928 -3.09622,-1.93262 -6.9535,-5.01398 -8.57172,-6.84747 -3.20233,-3.62831 -12.20675,-17.43273 -13.69591,-20.99681 -1.83864,-4.40037 -3.51457,-17.20174 -3.51816,-26.87284 -0.007,-13.84434 -0.77989,-16.72747 -8.97311,-33.39326 -3.79154,-7.71232 -8.05999,-15.75277 -9.48537,-17.86766 -2.15813,-3.20201 -4.54646,-7.92904 -8.9304,-17.67535 -1.98785,-4.41934 -3.46723,-8.71046 -5.28331,-15.32528 -1.73287,-6.31168 -2.13817,-9.20401 -2.55887,-18.2599 -0.54323,-11.69305 0.10852,-23.95953 1.62853,-30.65056 0.52966,-2.3314 1.28778,-6.14642 1.68467,-8.47782 0.76541,-4.4955 3.38043,-11.91796 6.66291,-18.91205 3.62961,-7.73368 10.44369,-21.16996 11.57534,-22.82488 0.61321,-0.89669 2.4617,-3.68459 4.10777,-6.19533 3.50929,-5.35282 12.53718,-17.13867 15.97331,-20.85318 1.31941,-1.4263 3.5509,-4.06747 4.9588,-5.86925 1.40797,-1.80179 5.80991,-6.94575 9.78209,-11.43101 13.55942,-15.31066 15.81106,-17.9331 19.34135,-22.52589 1.94273,-2.52744 5.29303,-6.88889 7.44509,-9.69211 2.15206,-2.80323 5.45815,-7.04478 7.34681,-9.42566 1.88866,-2.3809 5.26348,-6.65712 7.4996,-9.50272 2.23613,-2.84559 5.54802,-6.80734 7.35979,-8.80388 1.81178,-1.99654 4.12237,-4.65719 5.13456,-5.91256 1.01218,-1.25537 4.46644,-5.10854 7.67601,-8.5626 3.20957,-3.45407 6.30879,-6.97562 6.88718,-7.82568 4.81585,-7.07818 21.94671,-25.70175 27.22284,-29.59491 8.63622,-6.37251 15.21103,-10.679 19.93845,-13.0597 2.60556,-1.31216 5.791,-3.08297 7.07872,-3.93514 3.03375,-2.00761 19.92025,-9.73779 25.80614,-11.81332 9.20567,-3.24617 12.49206,-4.15881 17.20944,-4.77915 2.65036,-0.34852 5.2016,-0.95135 5.66944,-1.33963 2.15298,-1.78677 8.43471,-2.62615 24.72731,-3.30409 34.10761,-1.41923 48.29869,-0.013 66.42746,6.58233 12.22468,4.44742 14.91338,5.9949 26.2177,15.08947 11.70206,9.41457 15.22746,12.7779 21.46615,20.47942 2.61495,3.22809 6.32882,7.36187 8.25303,9.18618 3.48646,3.3054 14.77357,14.94212 19.88158,20.49739 6.0302,6.55815 30.90868,30.62639 35.53104,34.37384 5.57279,4.51797 19.15236,13.02808 27.40167,17.17219 3.00434,1.50928 6.98519,3.71705 8.8464,4.90617 1.86114,1.18912 4.59158,2.77814 6.06764,3.53115 1.47598,0.75301 3.96644,2.30879 5.53425,3.45729 3.70233,2.71209 6.11374,4.35621 12.07795,8.23484 9.26397,6.02453 16.63549,14.57438 25.5492,29.6332 2.57628,4.35241 5.82758,10.40791 7.22505,13.45666 1.39747,3.04876 3.38011,7.30397 4.40586,9.45603 1.02568,2.15206 3.47792,8.60824 5.44934,14.34707 5.15034,14.99266 9.9197,28.45353 12.47726,35.21554 2.00246,5.29443 4.05709,12.66809 8.08633,29.02021 0.75127,3.04875 1.82228,8.47781 2.38012,12.06458 0.55784,3.58677 1.30356,7.797 1.65708,9.35609 0.76222,3.36118 1.0266,7.4026 1.92623,29.44621 0.95923,23.50501 2.39328,31.59708 7.9068,44.61649 5.61264,13.25343 6.51839,22.14313 2.60634,25.57925 -4.51124,3.96234 -7.77442,7.3549 -18.36849,19.09687 -6.27684,6.95696 -12.1461,13.43329 -13.04279,14.39181 -2.30271,2.46163 -9.00266,10.54372 -13.52003,16.30929 -3.32774,4.24712 -5.9361,8.04323 -13.05864,19.00485 -1.45199,2.23462 -2.72327,5.43943 -7.46523,18.81924 -1.8828,5.31246 -1.94625,5.8407 -1.52438,12.6911 0.54264,8.81112 1.9842,13.18528 7.99393,24.25613 6.34786,11.69371 7.36526,13.47686 8.31445,14.5718 0.46641,0.53801 1.49196,2.15206 2.27897,3.58677 0.787,1.4347 2.43854,4.36933 3.67017,6.52139 4.20102,7.34049 4.36347,7.93074 4.03968,14.67979 -0.23229,4.84312 -0.69016,7.12919 -2.08978,10.43424 -3.69222,8.71897 -9.82174,20.66741 -12.54201,24.44858 -1.54825,2.15206 -3.77322,5.22879 -4.9444,6.83723 -1.17117,1.60837 -4.95143,5.87577 -8.4006,9.48302 -3.44923,3.60724 -6.75818,7.50019 -7.35333,8.65109 -0.59514,1.15083 -1.33134,2.09245 -1.63602,2.09245 -1.00638,0 -11.1272,15.30696 -15.75132,23.8228 -0.97971,1.80421 -3.07849,5.17903 -4.66391,7.4996 -1.58541,2.32058 -5.40878,8.47442 -8.49633,13.67524 -3.08756,5.20081 -6.58726,10.7766 -7.77709,12.39065 -1.1899,1.61405 -4.36777,6.08824 -7.06196,9.94258 -7.89728,11.29819 -19.55408,27.29311 -22.45812,30.81611 -1.47827,1.7934 -3.70793,4.665 -4.95476,6.3814 -1.24676,1.7164 -4.71321,6.2651 -7.70307,10.1082 -2.98993,3.8431 -7.09587,9.4482 -9.12435,12.4557 -4.26819,6.3282 -5.89319,7.6908 -7.89454,6.6198 -1.76723,-0.9458 -1.71819,-3.2006 0.12978,-5.9648 0.81282,-1.2157 2.7937,-4.4112 4.40194,-7.1009 3.16972,-5.3014 6.46166,-10.4717 8.29117,-13.0223 1.89766,-2.6457 3.75104,-6.0382 4.9787,-9.1134 0.63609,-1.5933 1.68017,-3.6476 2.32024,-4.5649 2.05887,-2.951 5.40331,-15.68902 4.11924,-15.68902 -0.82717,0 -4.59582,4.1776 -9.93776,11.01612 -2.3314,2.9846 -5.72454,7.2293 -7.54036,9.4328 -6.20843,7.5339 -10.40443,14.7304 -15.26391,26.1791 -4.54685,10.7121 -6.45129,19.6027 -7.82274,36.5198 -1.82273,22.4844 -12.22769,43.7004 -29.68964,60.5385 -11.69077,11.273 -34.60409,24.8899 -46.30817,27.5199 -14.87986,3.3436 -22.08275,5.3692 -32.2809,9.0776 -6.27685,2.2826 -13.76015,4.8798 -16.62956,5.7716 -11.17748,3.4739 -24.78639,8.4271 -30.51759,11.1074 -13.90192,6.5014 -31.5811,18.3308 -39.58742,26.4884 -3.90886,3.9827 -5.53321,6.4344 -11.47146,17.3143 -2.45661,4.501 -5.17257,11.9002 -5.70655,15.5465 -0.20164,1.3771 -0.71024,2.9178 -1.13022,3.4238 -1.10987,1.3373 -4.34214,1.1603 -5.11303,-0.28 z m 16.0995,-35.1568 c 3.34639,-4.7363 6.91659,-8.1121 13.51709,-12.7809 2.86941,-2.0297 6.10292,-4.4081 7.18553,-5.2854 2.93157,-2.3756 13.30326,-8.345 22.16075,-12.7546 7.45904,-3.7135 28.46061,-11.5284 38.71479,-14.4064 2.64194,-0.7415 8.36447,-2.6721 12.71672,-4.2902 9.00559,-3.348 24.05834,-7.6654 29.18422,-8.3704 9.29475,-1.2784 22.86643,-8.4659 38.59616,-20.4404 7.6243,-5.8042 13.70544,-12.1656 19.88054,-20.7969 8.50221,-11.8841 14.36005,-28.7245 15.82235,-45.4867 1.51642,-17.3825 4.41746,-28.7733 10.50186,-41.2346 4.27438,-8.7543 12.13468,-20.978 16.47017,-25.6129 1.52464,-1.63 3.32924,-3.8368 4.01014,-4.904 0.6809,-1.0671 4.06935,-5.31512 7.52986,-9.4399 3.46058,-4.12479 7.42885,-9.3856 8.81843,-11.69065 1.38964,-2.30512 2.85937,-4.2991 3.26604,-4.43109 0.40674,-0.13199 1.25146,0.27194 1.87712,0.89767 0.9818,0.98173 1.07871,1.91859 0.70731,6.83814 -0.23666,3.13529 -0.72772,6.55361 -1.09116,7.59625 -1.26123,3.61788 -3.63437,15.13678 -3.11853,15.13678 0.78876,0 14.28349,-17.82294 21.75427,-28.73161 2.15206,-3.14233 5.09699,-7.42748 6.54435,-9.52241 1.44736,-2.09493 3.62492,-5.56979 4.83901,-7.72185 2.26475,-4.01431 3.25463,-5.5649 8.95087,-14.021 1.8121,-2.69008 4.07848,-6.35836 5.03635,-8.15175 4.18158,-7.82887 12.45104,-20.82856 17.02221,-26.75925 2.22079,-2.88121 4.40566,-5.92599 4.85531,-6.76608 0.44958,-0.84015 1.81464,-2.8338 3.03329,-4.43044 1.21872,-1.59656 2.21584,-3.25528 2.21584,-3.68602 0,-0.43074 1.4876,-2.82931 3.30577,-5.3302 5.25213,-7.22433 6.51239,-10.06688 9.82239,-22.15481 0.56084,-2.04817 0.88926,-6.65567 0.88313,-12.39065 -0.009,-8.32319 -0.17178,-9.59095 -1.84353,-14.34707 -2.25739,-6.42201 -8.9664,-19.38178 -13.04469,-25.19828 -1.66974,-2.38142 -3.0359,-4.52337 -3.0359,-4.7599 0,-0.23653 -1.12977,-2.10315 -2.51061,-4.148 -6.80273,-10.07399 -7.81563,-11.77738 -8.8033,-14.80429 -2.21929,-6.80162 -2.38768,-9.39126 -0.97547,-14.99921 1.89401,-7.52112 4.46553,-15.3466 5.78598,-17.60777 0.98688,-1.68995 9.67025,-18.37325 13.06796,-25.10737 2.01192,-3.98751 4.52181,-9.56506 4.52181,-10.04849 0,-0.25655 0.71461,-1.98903 1.58796,-3.84991 3.00786,-6.40857 2.89015,-8.29573 -0.35874,-5.75278 -2.21904,1.73678 -8.39271,4.74151 -15.57629,7.58079 -3.40743,1.3468 -6.92898,2.83988 -7.82568,3.31789 -0.89669,0.47802 -4.7117,2.08137 -8.47781,3.56297 -10.29637,4.05057 -19.36522,9.83922 -23.69732,15.12599 -5.80117,7.07962 -5.14681,12.17544 3.63725,28.32503 2.32859,4.2811 5.32315,10.55605 6.65456,13.94437 1.33141,3.38832 2.79233,6.74756 3.24648,7.46491 0.85985,1.35821 4.00362,8.66061 7.58027,17.60777 2.13459,5.33978 7.16682,19.84735 8.709,25.10737 0.4732,1.61405 1.64979,5.5758 2.61463,8.80389 3.80582,12.73341 5.20511,33.15288 2.90482,42.38907 -1.08183,4.34383 -4.43487,12.67537 -6.25865,15.55118 -0.94469,1.48981 -2.69236,4.22795 -3.88362,6.08479 -2.41311,3.76121 -7.33005,8.15657 -12.26772,10.96632 -1.79339,1.02047 -4.95848,3.38402 -7.03359,5.25233 -2.07511,1.86831 -6.66904,5.34976 -10.20885,7.73659 -3.53975,2.38683 -6.80286,4.78175 -7.25127,5.32205 -1.00821,1.2148 -12.38805,9.81829 -15.93895,12.05036 -5.84193,3.67214 -9.65407,4.28652 -10.81312,1.74278 -1.01317,-2.22366 0.14797,-4.49931 3.75371,-7.35672 1.73059,-1.37145 5.05409,-5.08838 7.38548,-8.25987 2.3314,-3.17142 5.28925,-7.08432 6.57305,-8.6953 2.33153,-2.92576 7.08973,-11.96703 8.89942,-16.91012 1.73906,-4.75012 2.63132,-12.87643 2.08991,-19.03419 -0.7722,-8.78347 -1.78608,-14.87772 -3.15818,-18.98378 -1.63191,-4.88349 -3.97609,-19.1465 -3.9472,-24.01654 0.032,-5.44556 1.53983,-13.22709 3.1887,-16.45916 2.29501,-4.49865 5.92893,-6.16774 16.05202,-7.37283 4.89033,-0.58223 6.76315,-0.5221 10.99305,0.35261 7.10148,1.46862 7.15202,1.4606 6.74078,-1.07348 -0.37876,-2.33388 -5.02976,-14.47378 -8.30415,-21.67517 -1.14157,-2.51073 -3.36002,-7.70561 -4.92985,-11.5441 -1.56983,-3.83856 -4.2573,-9.4917 -5.97223,-12.5625 -6.30508,-11.29055 -6.9115,-12.51253 -8.74669,-17.62498 -2.25203,-6.27358 -2.32331,-9.26449 -0.33598,-14.09547 2.08958,-5.07978 5.7222,-9.20287 11.83398,-13.43206 7.36559,-5.0968 9.00703,-5.89032 29.99842,-14.50221 16.32749,-6.69852 21.75016,-9.88331 32.77002,-19.24627 12.21881,-10.38154 22.25256,-24.10523 22.84471,-31.24582 0.32978,-3.9766 -1.73359,-9.57048 -5.42594,-14.70998 -5.91307,-8.23055 -16.40483,-35.45105 -18.98052,-49.24426 -5.94901,-31.85798 -6.2246,-39.01962 -1.8567,-48.25254 2.23866,-4.73212 5.99675,-8.97288 7.73131,-8.72423 2.11573,0.30329 1.96763,1.81722 -0.56169,5.74092 -4.20454,6.52248 -5.11173,9.80403 -5.13788,18.58607 -0.0131,4.30412 0.30839,9.29299 0.71383,11.08637 0.4055,1.79339 1.04884,5.02148 1.42962,7.17354 0.38085,2.15206 1.45401,7.87459 2.38481,12.71672 2.96482,15.42338 11.67238,37.70382 19.75226,50.54082 3.1754,5.04495 5.42209,11.17646 5.41165,14.76888 -0.0183,6.34188 -7.48649,18.1475 -18.29721,28.92449 -4.75546,4.7406 -7.3412,7.82796 -7.6241,9.10316 -0.23548,1.06129 -1.53109,3.40899 -2.87913,5.21711 -2.99873,4.02227 -4.01405,5.99995 -6.81101,13.26654 -2.42609,6.30306 -6.05061,14.06815 -10.2772,22.01793 -1.53787,2.89263 -3.1184,5.97399 -3.51229,6.84747 -0.39383,0.87354 -1.78067,3.43795 -3.08188,5.69878 -1.30115,2.26084 -2.68232,5.3422 -3.06916,6.84747 -0.38692,1.50527 -1.46008,5.05591 -2.38488,7.89023 -1.40256,4.29839 -1.62252,5.93324 -1.32599,9.85396 0.48317,6.38882 1.67045,8.69094 13.89729,26.94543 5.0681,7.56671 7.04838,11.17187 11.63403,21.18045 4.86268,10.61318 5.53543,13.85438 5.56895,26.82948 0.0117,4.50309 0.26157,7.5315 0.59195,7.17354 1.40738,-1.52477 4.58336,-11.4551 4.93943,-15.44391 0.34766,-3.89386 0.19688,-4.77862 -1.3333,-7.82574 -1.99287,-3.96859 -5.05675,-9.20684 -9.44748,-16.15219 -3.8561,-6.09972 -10.31235,-18.507 -12.57168,-24.15975 -2.2568,-5.64629 -3.02723,-9.99834 -3.02723,-17.09969 0,-6.04455 1.08229,-10.23937 5.67576,-21.9981 2.47265,-6.32973 6.83006,-13.87394 13.40382,-23.20697 4.67316,-6.63474 12.39026,-16.01675 20.60572,-25.05136 14.12599,-15.53455 17.45836,-19.26811 22.76782,-25.50876 2.93424,-3.44884 5.63618,-7.0628 6.00431,-8.03117 1.53892,-4.0477 0.72127,-8.26026 -3.55311,-18.30519 -6.10912,-14.35671 -7.82979,-24.88385 -8.47417,-51.84509 -0.69159,-28.93435 -3.99168,-45.33615 -16.00813,-79.56103 -2.20378,-6.27684 -5.41198,-15.54795 -7.12932,-20.60246 -8.52438,-25.08947 -16.10922,-40.52376 -28.02792,-57.03354 -7.09984,-9.83471 -22.83929,-21.4087 -47.56334,-34.97561 -5.60925,-3.078 -12.10619,-6.82481 -14.43759,-8.32623 -2.3314,-1.50142 -5.4078,-3.43675 -6.83651,-4.30072 -1.4287,-0.86398 -5.22259,-3.75564 -8.43086,-6.42592 -7.04558,-5.864 -50.94886,-49.82527 -59.30798,-59.3863 -8.28426,-9.47533 -16.86322,-18.31308 -19.99597,-20.59915 -1.45147,-1.05918 -5.19742,-3.9225 -8.32443,-6.36293 -12.96264,-10.11654 -31.37822,-15.91732 -54.92202,-17.30009 -15.57779,-0.9149 -43.4728,0.57058 -54.12759,2.88244 -4.12478,0.89499 -9.48361,2.05948 -11.90846,2.58776 -2.42485,0.52827 -6.68006,1.80528 -9.45602,2.83779 -7.34772,2.73298 -22.13929,9.53372 -24.90612,11.45114 -1.31113,0.90862 -2.55659,1.65204 -2.76762,1.65204 -0.7707,0 -11.45392,6.20171 -17.72196,10.28777 -9.49352,6.18875 -17.61592,14.33499 -32.36503,32.46017 -1.97272,2.42427 -5.34754,6.19708 -7.49961,8.38402 -9.53962,9.69422 -19.91138,22.2211 -38.38663,46.36291 -9.60901,12.55621 -15.93561,20.39356 -20.59404,25.51164 -10.00102,10.98794 -12.64688,14.00353 -15.16094,17.27937 -1.54596,2.01445 -5.0951,6.48587 -7.88698,9.93649 -9.81202,12.1272 -18.974,27.11013 -25.58043,41.83273 -2.6486,5.90246 -6.84088,18.39578 -6.84603,20.40175 0,0.97405 -0.64934,4.26543 -1.43732,7.31418 -1.27924,4.9495 -1.43418,7.2195 -1.44625,21.19454 -0.0143,16.70872 -0.24344,14.94426 3.85043,29.67235 0.54832,1.97272 2.50904,7.10832 4.35714,11.41244 2.95458,6.88112 4.80816,10.24393 11.40507,20.69145 0.84446,1.33735 1.5354,2.58902 1.5354,2.78149 0,0.19246 1.93757,4.3806 4.30569,9.30697 8.73006,18.16095 9.72457,21.9206 10.30478,38.95547 0.42539,12.49082 1.51335,19.59764 3.65028,23.84399 5.88876,11.70173 14.00027,21.64842 20.75585,25.4517 10.83151,6.09796 19.66109,14.1631 46.51672,42.4893 13.03242,13.74606 20.93701,23.86786 23.5573,30.16511 2.86896,6.89475 4.88329,19.37898 5.70512,35.35888 0.40987,7.96966 0.55894,15.33858 0.33128,16.37529 -0.85567,3.89568 0.77637,12.19338 3.48523,17.71993 2.34412,4.78234 10.80785,16.30062 11.9787,16.3018 0.86343,0 0.54232,-0.91052 -2.18917,-6.21287 -4.26793,-8.28485 -7.03978,-16.64136 -7.85678,-23.68623 -1.27689,-11.01079 -0.91358,-26.25136 1.04727,-43.93732 0.61171,-5.51749 0.76444,-9.52352 0.41006,-10.75906 -0.93438,-3.25822 -10.20715,-17.32487 -15.16628,-23.00709 -7.49302,-8.58562 -13.56307,-19.01939 -17.83165,-30.65056 -1.38215,-3.76611 -3.10164,-7.51343 -3.82115,-8.32737 -0.7195,-0.81394 -3.08586,-2.04413 -5.25859,-2.73377 -2.17273,-0.6897 -7.17849,-2.5766 -11.12394,-4.19319 -6.77031,-2.77394 -7.45147,-3.22998 -12.11766,-8.11236 -2.71929,-2.84528 -6.16318,-6.95904 -7.65312,-9.14182 -2.55091,-3.73709 -2.76886,-4.4294 -3.73676,-11.86914 -1.14138,-8.77329 -1.11451,-9.02672 2.04713,-19.32335 1.23124,-4.01 3.00043,-10.90641 3.93142,-15.3253 1.60114,-7.59913 1.67228,-8.74091 1.31406,-21.07715 -0.52588,-18.10991 -3.01216,-29.97739 -8.53892,-40.75873 -0.82743,-1.61404 -1.72477,-3.65602 -1.99417,-4.53773 -0.26947,-0.88172 -3.295,-6.75097 -6.72356,-13.0428 -3.4285,-6.29182 -7.47672,-13.97988 -8.99601,-17.08458 -3.18889,-6.51654 -7.12599,-12.55124 -11.17102,-17.12254 -2.95993,-3.345 -3.45249,-5.72137 -1.27206,-6.13707 4.42744,-0.84408 12.39222,11.26036 28.67432,43.57765 7.3005,14.4903 10.15772,21.43084 12.08082,29.34628 2.26103,9.30641 2.64592,12.39255 3.0989,24.846 0.3562,9.79487 0.23503,13.1383 -0.65938,18.19521 -1.10649,6.25597 -4.90435,21.77119 -6.06607,24.78133 -1.15729,2.99848 -1.50984,8.75837 -0.82887,13.53953 0.82906,5.82022 3.13731,10.11997 8.68017,16.16902 3.52136,3.84293 4.97041,4.85257 11.22593,7.82183 3.95047,1.87516 9.23691,4.0402 11.74764,4.81129 2.51074,0.77102 8.54114,2.99071 13.40082,4.93265 13.80456,5.51619 22.46171,7.70725 37.46607,9.48224 12.05395,1.4259 16.55809,2.101 26.36372,3.95131 5.53308,1.04408 10.81541,2.39114 11.73851,2.99339 0.92304,0.60231 3.3087,2.72972 5.30138,4.72762 3.34573,3.35447 3.75756,4.10874 5.38015,9.85422 1.54081,5.45586 1.75706,7.38444 1.75706,15.66843 0,10.93488 -0.76522,18.00362 -2.88983,26.69429 -0.83298,3.40743 -2.31333,9.71688 -3.28965,14.021 -0.97632,4.30413 -2.14013,8.41261 -2.58626,9.12996 -2.81,4.51809 -8.34249,22.56357 -7.25205,23.65401 0.20699,0.20699 1.91475,-1.24558 3.79513,-3.22796 4.00557,-4.22293 8.13074,-7.12182 13.73073,-9.64925 11.51744,-5.19814 20.28558,-4.12217 27.82177,3.41408 5.4067,5.4067 7.93713,12.45658 7.76144,21.62345 -0.18129,9.45576 -2.97897,17.10151 -8.72954,23.85644 -1.67945,1.97272 -5.00621,5.90108 -7.39285,8.72967 -2.42889,2.87861 -7.92825,8.01838 -12.49108,11.67434 -13.53509,10.84482 -13.78114,11.18543 -10.89223,15.07604 4.44192,5.98214 16.60895,30.26351 18.46827,36.85652 0.56416,2.00076 1.44709,4.92156 1.96196,6.49081 1.3991,4.26421 1.86192,15.81151 0.93354,23.2911 -0.82352,6.63415 -3.34574,14.21422 -6.02858,18.11742 -5.59516,8.1402 -10.96696,14.4873 -15.06749,17.8032 -4.51737,3.653 -4.62869,3.8095 -2.8533,4.0128 2.8413,0.3254 20.39579,-1.7368 24.49951,-2.8781 9.32684,-2.5939 16.47063,-5.2631 21.25923,-7.9434 6.16559,-3.4509 7.17875,-4.2703 9.18656,-7.4297 1.1972,-1.8838 2.24095,-2.6002 4.9412,-3.3917 2.56317,-0.7514 3.64578,-0.8189 4.30875,-0.2687 0.98923,0.821 0.57681,3.4736 -0.78844,5.0705 -1.22361,1.4313 -1.23528,25.9819 -0.0176,37.0711 1.10538,10.0671 1.21357,16.9496 0.33657,21.4087 -0.34048,1.7311 -0.96249,4.9082 -1.38227,7.0602 -0.86018,4.41 -2.94174,8.9073 -5.56634,12.0265 -3.01928,3.5882 -20.92514,16.4692 -32.21289,23.1732 -5.91817,3.5148 -11.48731,7.0839 -12.37585,7.9312 -1.54818,1.4765 -1.559,1.5407 -0.26033,1.5407 0.74533,0 2.20599,-0.2647 3.24589,-0.5882 1.03984,-0.3235 5.39365,-1.3987 9.67501,-2.3894 7.72603,-1.7877 12.079,-3.1981 23.68441,-7.6739 13.8039,-5.3236 19.77189,-9.0217 27.28076,-16.9048 6.39312,-6.7117 13.90283,-19.0862 15.53944,-25.6059 1.06083,-4.2261 2.96332,-17.123 2.9761,-20.175 0.0346,-8.2543 4.10059,-24.9812 7.86742,-32.3648 0.80017,-1.5684 1.63471,-4.3183 1.85455,-6.1109 0.34609,-2.8219 0.64484,-3.3452 2.22751,-3.9015 1.23561,-0.4343 2.18637,-0.4188 2.93463,0.048 1.64691,1.027 8.47925,13.4993 10.66894,19.476 8.0641,22.0108 8.85768,26.7659 7.72707,46.3019 -1.17711,20.3407 -2.39237,24.2896 -9.97695,32.4194 -5.60449,6.0073 -11.30452,10.4981 -24.59395,19.3764 -13.54728,9.0507 -26.21483,15.8469 -36.51981,19.5934 -16.78973,6.104 -20.12301,7.4452 -25.33302,10.1927 -2.99351,1.5786 -5.78141,2.8718 -6.19532,2.8736 -0.41391,0 -3.83393,1.8433 -7.60004,4.092 -8.64189,5.16 -20.06313,14.4696 -24.38995,19.8806 -1.82932,2.2876 -4.59354,5.679 -6.14283,7.5364 -4.02416,4.8245 -8.92518,13.1607 -12.67361,21.5564 -3.11228,6.9709 -4.24674,10.1887 -3.59212,10.1887 0.16923,0 1.49979,-1.6874 2.95693,-3.7498 z M 506.91251,664.54273 c -0.68077,-0.86552 -1.76359,-4.07926 -2.40627,-7.14165 -1.56213,-7.44391 -2.07126,-7.86148 -8.8524,-7.26125 -4.95861,0.43895 -5.39633,0.37361 -6.88823,-1.0279 -2.11991,-1.99157 -3.06329,-5.77861 -2.52091,-10.11964 0.50182,-4.01634 -0.23555,-5.483 -2.75653,-5.483 -1.86714,0 -5.02336,1.52757 -7.60042,3.67853 -2.42629,2.02509 -4.68373,1.98152 -6.0587,-0.11687 -0.95826,-1.46249 -1.09286,-4.44563 -1.15488,-25.59648 l -0.0702,-23.94102 1.85031,-5.82876 c 3.14853,-9.91793 8.47247,-16.39231 17.38506,-21.14184 7.49954,-3.99644 12.10111,-5.31031 18.59779,-5.31031 6.51044,0 8.2703,0.70373 11.65816,4.66163 4.35812,5.09145 4.9622,7.11908 4.93827,16.57576 -0.0117,4.63919 -0.30442,10.4892 -0.65045,12.99994 -0.94893,6.88601 -2.39446,19.88458 -3.22724,29.02021 -3.01908,33.12008 -5.30483,44.89956 -9.10765,46.93475 -1.69041,0.90465 -1.72146,0.89572 -3.13568,-0.9021 z m 3.9815,-13.26263 c 0.17478,-0.62769 0.64171,-4.22261 1.03769,-7.98871 0.39598,-3.76611 0.99523,-8.90171 1.33167,-11.41245 0.72328,-5.39736 1.7414,-16.44604 2.31359,-25.10737 0.22512,-3.40743 0.83448,-8.54303 1.3541,-11.41244 0.51969,-2.86942 1.12651,-9.67384 1.34856,-15.12097 0.40055,-9.82637 0.38992,-9.93208 -1.36369,-13.51631 -2.04824,-4.18647 -4.11982,-6.0375 -7.4591,-6.66512 -3.04197,-0.57173 -10.33974,0.67333 -14.66903,2.50258 -4.95509,2.0937 -11.86464,6.79517 -14.01109,9.53357 -2.61534,3.33673 -5.79602,11.89593 -6.58603,17.72306 -0.80624,5.94712 -0.52105,38.91447 0.34414,39.77967 0.38554,0.38554 1.80519,0.25707 3.80282,-0.34414 3.76708,-1.13368 5.70322,-1.19191 9.01876,-0.27116 3.65473,1.01499 4.57874,2.92341 4.65622,9.61724 l 0.0656,5.67205 5.66122,0 c 5.39281,0 5.75983,0.0927 7.74292,1.95641 1.14496,1.07603 2.48974,2.91018 2.98843,4.07588 1.00319,2.34516 1.93764,2.72242 2.42322,0.97821 z m -68.51045,9.45603 c -0.73568,-0.80703 -1.68852,-2.56324 -2.11731,-3.90267 -0.42884,-1.33943 -1.56546,-3.05952 -2.52586,-3.82252 -1.60407,-1.27428 -2.2238,-1.34941 -7.61543,-0.92337 -9.28203,0.73353 -10.05058,0.68116 -11.51646,-0.78471 -1.9705,-1.97051 -2.11821,-5.7749 -0.65266,-16.81099 1.77167,-13.34056 1.06684,-13.56698 -8.0472,-2.58586 -8.66316,10.43788 -9.56109,11.38538 -10.78959,11.38538 -3.40508,0 -4.0642,-4.24641 -1.92335,-12.39066 0.70711,-2.69007 2.17371,-11.20049 3.25906,-18.91204 1.08536,-7.71155 2.12259,-14.90139 2.30499,-15.97742 0.18234,-1.07603 0.74031,-4.75306 1.23991,-8.17112 1.08575,-7.42813 3.37841,-13.44437 7.53241,-19.76622 3.72039,-5.66187 4.53433,-6.41001 9.39544,-8.6355 3.50558,-1.60491 4.31169,-1.71962 10.09049,-1.4364 5.46865,0.26809 6.9329,0.61014 11.32754,2.64632 8.9289,4.13704 13.68534,10.64207 17.18922,23.50845 2.45381,9.01023 2.22008,13.77508 -1.39701,28.48403 -2.59089,10.53557 -4.72488,23.59317 -5.16025,31.57412 -0.69942,12.8227 -0.93576,14.10585 -2.97291,16.143 -2.34972,2.34979 -5.67335,2.51472 -7.62103,0.37818 z m 4.64538,-6.52141 c 0.1646,-0.80702 0.476,-4.54867 0.69199,-8.31478 0.58607,-10.21798 2.38552,-21.41209 5.60846,-34.88946 3.61273,-15.10753 3.18877,-24.20045 -1.60589,-34.44145 -2.63165,-5.62099 -5.98123,-8.89955 -11.94224,-11.68901 -3.48621,-1.6314 -5.05063,-1.97162 -9.21036,-2.00299 -6.02427,-0.0457 -8.53462,0.92115 -12.35955,4.75912 -3.84743,3.86054 -8.25256,13.23165 -9.19999,19.57123 -0.40205,2.69008 -1.2917,8.4126 -1.97696,12.71672 -0.68534,4.30413 -1.59801,10.61358 -2.02822,14.02101 -0.43022,3.40742 -1.14542,8.33349 -1.58933,10.94688 -0.5118,3.01242 -0.57669,4.89391 -0.17745,5.14068 0.34629,0.21403 3.01569,-2.01107 5.93193,-4.94465 2.91623,-2.93365 5.74248,-5.60931 6.28049,-5.94595 1.92055,-1.20163 5.20381,-0.70464 6.96237,1.05399 1.65122,1.65122 1.67711,1.81595 1.25466,7.98871 -0.23725,3.46651 -0.74429,8.54094 -1.12677,11.27654 -1.09442,7.82763 -1.51733,7.41684 7.63597,7.41684 7.43863,0 8.00077,0.0938 10.51516,1.75491 1.57929,1.04336 3.14846,2.82148 3.8698,4.38518 1.37966,2.99079 2.03513,3.30884 2.46593,1.19648 z m -93.11718,5.36477 c -1.79423,-2.13236 -2.2268,-3.36119 -2.51967,-7.15815 l -0.17602,-2.28249 -4.11787,-0.3277 c -3.92633,-0.3125 -4.24849,-0.47202 -6.92533,-3.42908 -2.77113,-3.06134 -2.79963,-3.14129 -2.20592,-6.19369 1.74388,-8.96542 2.51158,-15.87726 2.84235,-25.59113 0.42519,-12.48456 2.27655,-24.99847 4.72338,-31.92641 1.46699,-4.15374 2.33929,-5.46813 5.98286,-9.01544 8.06286,-7.8498 16.83342,-10.55573 26.9316,-8.30904 8.42649,1.87471 12.61564,6.16083 15.91801,16.28666 1.39714,4.28378 1.71506,6.50673 1.73013,12.09576 0.0183,6.87309 -0.43831,9.49046 -4.43873,25.43344 -2.39328,9.53806 -3.19457,17.66079 -2.39067,24.23299 0.37471,3.06375 0.52608,6.16422 0.3363,6.88992 -0.78106,2.98699 -8.15539,6.08355 -11.45405,4.80972 -2.43841,-0.94162 -4.28794,-3.43495 -5.12757,-6.91242 -0.95519,-3.95607 -1.38639,-4.49435 -3.15147,-3.93409 -1.72752,0.54825 -4.86118,5.02956 -8.21878,11.75319 -2.16289,4.33125 -2.90007,5.25755 -4.31462,5.42163 -1.25276,0.14536 -2.1625,-0.34453 -3.42393,-1.84367 z m 5.34102,-10.24805 c 1.52412,-4.99728 8.58894,-11.25717 12.70472,-11.25717 2.45955,0 4.57105,3.00336 5.90728,8.40262 0.77924,3.14847 1.7583,3.79487 4.64878,3.06943 1.50103,-0.37674 1.52222,-0.50515 1.54042,-9.35077 0.0189,-9.14306 0.73698,-13.54729 5.34408,-32.77184 1.96112,-8.18357 1.98414,-19.13997 0.0522,-24.89386 -1.90353,-5.66931 -5.52336,-9.85898 -9.71622,-11.24589 -5.30268,-1.75399 -8.88462,-1.96379 -12.62738,-0.73959 -15.42271,5.04449 -19.46774,12.45521 -20.84225,38.18362 -0.27788,5.20081 -0.86885,12.68411 -1.31341,16.62956 -0.93673,8.31419 -0.85476,17.14599 0.17053,18.3814 0.41216,0.4966 2.06924,0.85672 3.94206,0.85672 2.70155,0 3.54333,0.31237 5.13723,1.90626 1.23358,1.23353 1.90627,2.57596 1.90627,3.80413 0,3.75072 1.8824,3.16751 3.14566,-0.97462 z m 24.59721,-138.06362 c -3.84554,-0.71318 -4.81749,-1.1764 -6.36965,-3.03565 -3.1767,-3.80517 -3.89392,-8.80688 -2.11965,-14.78146 0.57474,-1.93542 3.48152,-7.06541 6.89514,-12.16892 5.50693,-8.233 6.02818,-9.30584 7.79587,-16.04348 1.04193,-3.97121 2.36101,-9.90979 2.93131,-13.1967 3.27674,-18.8859 12.71646,-26.66005 24.93142,-20.53255 6.50894,3.26513 9.34588,7.55915 14.2636,21.5898 3.88505,11.08429 5.86345,14.60056 11.61082,20.63624 6.57513,6.90492 8.49725,9.36916 12.68151,16.25823 2.81072,4.62771 3.32695,5.9766 3.32695,8.69315 0,1.84921 -0.46869,4.0089 -1.10309,5.08284 -1.32437,2.24199 -6.26328,4.52918 -9.7802,4.52918 -3.0346,0 -10.04113,-1.94521 -13.66415,-3.79357 -4.80621,-2.45197 -8.1449,-2.96077 -13.90271,-2.11886 -6.53665,0.95577 -10.21289,2.20377 -15.63433,5.30737 -6.80657,3.89667 -13.88529,5.05395 -21.86284,3.57438 z m 16.27655,-6.32778 c 11.77823,-6.1502 14.56019,-7.11106 21.87557,-7.55523 6.62411,-0.40217 10.77973,0.38574 16.64195,3.15551 5.72461,2.70475 11.41753,3.21146 14.46882,1.28784 2.51661,-1.58659 2.73455,-3.46227 0.835,-7.18573 -1.97253,-3.86653 -7.48187,-10.8981 -13.06001,-16.66842 -7.89232,-8.16433 -8.69047,-9.60093 -15.03657,-27.0638 -2.68988,-7.40178 -5.51541,-11.94908 -8.736,-14.05928 -0.80402,-0.5268 -3.61103,-1.10114 -6.23785,-1.2763 -3.93572,-0.26242 -4.99832,-0.11745 -6.03946,0.82411 -2.60184,2.35285 -5.29655,9.75451 -7.65755,21.03287 -2.44161,11.66358 -3.99527,16.61521 -6.24078,19.89026 -6.16664,8.99385 -9.77975,14.86741 -10.59036,17.21596 -1.66126,4.81285 -0.40759,10.12734 2.76957,11.74047 0.74664,0.37909 4.14122,0.61575 7.55165,0.52647 5.21718,-0.13649 6.71012,-0.43093 9.45602,-1.86473 z M 243.57098,461.06911 c -11.66377,-3.80354 -15.06044,-6.39227 -28.91965,-22.04094 -7.11719,-8.03612 -9.93071,-12.29792 -11.81768,-17.90084 -0.74526,-2.21284 -2.39055,-6.46805 -3.65622,-9.45603 -6.53118,-15.4185 -7.85267,-23.15025 -7.11334,-41.61773 0.62468,-15.60424 1.58417,-18.19374 9.80479,-26.46075 5.72448,-5.75677 15.23071,-13.74328 17.25835,-14.49931 0.55484,-0.20688 3.50323,-2.02476 6.55198,-4.03974 3.04875,-2.01498 7.89089,-5.17712 10.7603,-7.02698 9.13628,-5.88998 17.96912,-12.13321 21.09665,-14.91154 3.78319,-3.36078 14.53717,-9.80607 21.35366,-12.79818 6.2938,-2.76266 15.97377,-5.13632 22.11151,-5.42205 2.51074,-0.11688 5.52153,-0.40825 6.69062,-0.64747 4.02716,-0.82403 18.64637,4.85306 25.12022,9.755 5.30653,4.01804 9.90268,8.03629 15.46928,13.52436 5.55877,5.48035 6.50815,6.77793 9.24036,12.62929 2.89406,6.19816 7.12984,16.77831 9.26853,23.15096 0.98258,2.92783 1.56357,5.93974 3.38715,17.55944 1.92205,12.24704 1.33095,45.6524 -0.9471,53.5238 -2.78164,9.61149 -5.98612,14.84393 -11.65595,19.03243 -5.5606,4.10789 -7.38483,4.51796 -22.72655,5.10873 -9.15545,0.35261 -15.26541,0.90295 -18.2599,1.64476 -7.60728,1.88462 -25.38291,9.04655 -39.79956,16.03559 -10.03049,4.86268 -14.2606,6.15216 -21.805,6.64667 -4.31573,0.2829 -5.74418,0.0587 -11.41245,-1.78947 z m 20.31865,-3.94166 c 2.18519,-0.51538 8.93483,-3.4056 14.99921,-6.42279 13.03073,-6.48305 32.76558,-14.35203 38.74205,-15.44788 2.3314,-0.42748 9.3745,-1.03449 15.65135,-1.34895 16.66777,-0.835 19.41889,-1.63805 24.364,-7.11165 2.93475,-3.24844 4.58962,-6.49922 6.55765,-12.88145 1.43516,-4.65413 1.59533,-6.55719 1.96372,-23.32745 0.25525,-11.62301 0.15195,-19.80062 -0.28433,-22.49882 -0.377,-2.3314 -1.09253,-7.467 -1.59011,-11.41244 -1.28765,-10.20943 -2.07883,-13.2882 -5.31774,-20.69409 -1.57759,-3.60709 -2.86831,-6.90403 -2.86831,-7.32653 0,-0.42251 -1.28191,-3.38805 -2.84874,-6.59011 -2.60236,-5.31839 -3.51894,-6.44777 -10.59727,-13.05814 -7.60818,-7.10515 -14.67783,-12.37153 -21.03593,-15.67024 -3.45484,-1.79242 -15.00939,-4.10187 -20.69728,-4.13684 -5.88602,-0.0362 -15.99483,2.92088 -25.03395,7.32297 -4.73903,2.30795 -12.75148,7.30889 -13.40538,8.36698 -0.23418,0.3789 -2.376,1.97414 -4.75957,3.54496 -2.38364,1.57083 -6.01416,4.11706 -8.06788,5.65829 -4.98202,3.73881 -9.02248,6.44851 -14.52589,9.74167 -13.18867,7.89192 -19.05539,12.15398 -27.92527,20.28721 -9.79024,8.97722 -11.19788,13.42343 -10.71706,33.85045 0.29053,12.34408 0.44763,13.7204 2.25907,19.78821 1.07075,3.58677 2.54231,7.69525 3.27022,9.12996 0.72786,1.43473 2.52411,5.88324 3.99162,9.88561 3.12512,8.52294 4.07985,10.04106 12.03341,19.13462 9.27075,10.59942 13.63219,14.71788 17.81521,16.8226 3.45002,1.73593 5.8032,2.54908 13.2938,4.59393 3.45171,0.94221 10.28313,0.84948 14.7334,-0.20008 z m 289.81578,-19.1896 c -5.50614,-1.65382 -15.69478,-5.35882 -20.21633,-7.35144 -5.26987,-2.32253 -10.16607,-4.00935 -16.69418,-5.75154 -8.58516,-2.2911 -18.0256,-2.65388 -24.71668,-0.94978 -2.26788,0.5776 -8.48714,1.15905 -14.79372,1.38306 -12.20486,0.43354 -13.75082,0.14536 -22.7043,-4.23232 -3.24042,-1.58437 -6.21998,-3.71883 -8.82887,-6.32471 -4.83652,-4.83098 -13.01833,-17.75317 -14.75041,-23.29645 -4.18067,-13.37953 -6.41914,-25.85934 -6.41914,-35.78741 0,-7.86729 1.08516,-20.62739 2.26781,-26.66717 0.5268,-2.69008 1.12468,-5.98631 1.32874,-7.32496 0.56579,-3.71154 5.70028,-13.31735 9.91513,-18.5495 5.07755,-6.30301 8.71917,-9.37135 16.29794,-13.7321 14.08635,-8.10511 18.40182,-9.57476 26.91191,-9.16496 7.67784,0.36971 11.38473,1.88621 19.14525,7.8323 6.15757,4.71789 22.72987,13.31645 29.45376,15.28207 2.51073,0.73398 9.8473,2.59525 16.30349,4.13616 17.84651,4.25946 35.96647,11.12446 42.4865,16.0966 3.78436,2.88596 6.38431,9.9452 11.00472,29.87962 0.58191,2.51074 1.61659,6.61922 2.29925,9.12996 0.68259,2.51073 1.41684,5.88556 1.63152,7.4996 0.21475,1.61405 0.83794,4.83117 1.38482,7.14917 2.94982,12.50223 -1.42434,38.88069 -8.02725,48.40878 -3.17142,4.57626 -9.52619,9.85578 -14.32366,11.89998 -4.15282,1.76945 -5.20746,1.93249 -13.63102,2.1068 -8.45805,0.1751 -9.58586,0.0522 -15.32528,-1.67176 z m 26.89547,-5.24463 c 8.32724,-3.4911 12.59536,-8.30422 16.80884,-18.95496 1.50057,-3.79317 2.8985,-12.24412 3.62192,-21.89549 0.35639,-4.75538 0.12325,-7.61554 -1.27396,-15.63006 -0.94058,-5.39528 -2.14763,-11.41127 -2.68225,-13.36886 -0.53462,-1.9576 -1.42323,-5.61351 -1.97468,-8.12425 -0.43028,-7.48066 -1.95792,-13.78434 -3.91812,-19.28671 -1.9602,-5.50238 -2.88076,-4.43331 -4.83803,-6.66257 -2.01432,-2.2942 -5.87082,-4.41344 -15.35749,-8.43939 -11.50629,-4.88303 -19.85922,-7.31285 -42.38907,-12.33078 -1.79339,-0.39943 -5.46167,-1.84091 -8.15175,-3.20329 -2.69007,-1.36238 -7.67894,-3.79682 -11.08637,-5.40988 -3.40743,-1.61306 -8.68976,-4.80615 -11.73851,-7.09576 -5.46552,-4.10458 -10.53206,-6.59219 -14.99921,-7.36434 -3.63927,-0.62906 -14.04774,2.43452 -22.68213,6.67615 -6.47412,3.18041 -8.39454,4.50331 -12.56308,8.65413 -5.88224,5.85732 -9.98661,11.2849 -12.00459,15.87483 -3.38467,7.69856 -5.93055,25.5597 -5.82549,40.8701 0.0496,7.25715 0.43204,10.57977 2.1756,18.91205 2.34092,11.18683 3.77778,15.2961 7.80526,22.32257 5.97021,10.41564 12.24829,16.48224 20.92168,20.21691 4.82277,2.07661 5.02767,2.10511 14.67314,2.04041 7.44776,-0.0502 11.41616,-0.41319 16.62956,-1.52203 12.11858,-2.57758 22.76267,-1.12526 38.80231,5.2944 7.84621,3.14031 23.40202,8.62109 28.36807,9.99489 2.44787,0.67718 5.6575,0.9218 10.10816,0.77043 5.5861,-0.19003 7.24547,-0.52542 11.57019,-2.3385 z m -51.3507,239.59765 c 1.79338,-1.49686 6.04859,-4.58109 9.45602,-6.85386 3.40743,-2.27277 8.59344,-5.91093 11.52448,-8.0849 2.93111,-2.17392 6.63128,-4.8844 8.22276,-6.0233 6.15763,-4.40664 12.24784,-13.52824 15.81628,-23.68877 3.21309,-9.14893 2.94623,-24.42126 -0.68938,-39.45445 -3.06075,-12.65594 -5.3628,-16.80237 -10.94844,-19.72024 -3.14019,-1.64033 -3.92249,-1.76228 -10.8861,-1.69635 -11.08794,0.10487 -15.38293,2.35579 -17.05932,8.94038 -1.4231,5.58962 -1.05803,19.9001 0.67587,26.49721 7.55648,28.74997 7.0242,40.96669 -2.53812,58.2512 -1.82097,3.29148 -4.62028,7.84192 -6.2207,10.11195 -1.60041,2.2701 -2.73983,4.40246 -2.53206,4.73864 0.46856,0.75811 1.08699,0.39774 5.17871,-3.01751 z M 285.06089,658.77971 c 1.87816,-1.52438 5.64615,-4.49495 8.37334,-6.60123 9.44376,-7.29372 17.36504,-13.75636 20.8622,-17.02058 7.10995,-6.63637 14.61347,-17.4748 17.68538,-25.54567 2.89719,-7.61184 2.89367,-18.07086 -0.008,-23.68845 -2.52658,-4.89151 -9.46855,-9.75471 -13.97248,-9.78849 -7.2068,-0.0541 -19.03511,5.84956 -24.28601,12.12119 -6.81844,8.14392 -7.83813,12.84982 -6.94059,32.03147 0.4837,10.33752 0.44059,14.96503 -0.17907,19.20818 -0.97169,6.6543 -3.08521,14.03933 -5.23264,18.28372 -0.85593,1.69178 -1.55627,3.23246 -1.55627,3.42373 0,1.05288 2.24845,0.0157 5.2541,-2.42387 z m -3.2472,-21.52061 c 0.57799,-2.12774 0.55327,-5.27125 -0.1063,-13.5319 -1.47319,-18.44929 -1.66804,-33.09185 -0.52087,-39.12837 1.42819,-7.5148 1.98583,-9.55333 3.47871,-12.71673 4.80105,-10.17383 5.75696,-12.60364 6.62828,-16.84835 0.52752,-2.56975 1.37269,-6.2863 1.87817,-8.25902 3.60874,-14.08374 4.32459,-18.83399 4.44133,-29.47051 0.10408,-9.48713 -0.0561,-11.26891 -1.48408,-16.49418 -2.58136,-9.44689 -6.16767,-12.48325 -16.95478,-14.35483 -3.32617,-0.57714 -7.69929,-1.44899 -9.71799,-1.93744 -2.01869,-0.48845 -7.04519,-1.2242 -11.16997,-1.63491 -17.74935,-1.7675 -29.09645,-4.12016 -39.41675,-8.17249 -3.20729,-1.25941 -6.07892,-2.04243 -6.38125,-1.74004 -0.30234,0.30234 0.0476,1.94299 0.77748,3.64592 0.72994,1.70293 1.32717,3.40554 1.32717,3.78352 0,2.10537 6.16898,12.91321 11.02305,19.31213 3.08357,4.06492 7.87021,10.37437 10.63691,14.02101 5.99773,7.90517 9.41031,13.50926 10.39106,17.0644 0.53489,1.93881 0.51037,4.61767 -0.0956,10.43423 -1.5952,15.3127 -1.80949,19.73342 -1.62761,33.58519 l 0.1841,14.021 2.28079,6.84747 c 2.60113,7.80937 6.96394,16.55913 11.25535,22.57296 3.11409,4.36405 12.69415,13.24196 17.99722,16.67827 2.29703,1.48845 3.16868,2.47148 3.16868,3.57373 0,2.47937 1.19609,1.73371 2.0069,-1.25106 z"
       id="path3184"
       inkscape:connector-curvature="0"
       sodipodi:nodetypes="ccscsssccsccssssscsssssssssscsccsscscscssscsssssssssscsssssssssscsssssccscsscsssssssscssssssssssssssccsssscsscscsssscssssscsscsscscsssscsscssscssscssssssssssssccccscsssssssscsssccccssscsssccssscsssssssssccsssssscscsscccsssscsssssscsccscscscssssssssscccsscscsssccccssscccsssssssscssssssssssssssssssssssscsscsscsssssssssscscssscsssccsssccsccssssssssccsscssscssssscssssscssscscsscssscssssssscscsssssssccssssssccscsscccsscssscsccsssscscccssscsssscssccscssccsccssssssscssscsssssscsssscsscsccsccssscscsccccsssssccsscsscscscccccssssscsscscccscssssssssssssccscscssssscsscscsccssssssssssssssssssscssccsssssscscsssssscsssssscsssccssssssssscssssssssccccccssssssssczssssssssscssscssscssccsssccsssccscsssccsscssccssscsssccsscccssscsscssssss" />
  </g>
</svg>
